<svg width="64" height="28" viewBox="0 0 64 28" fill="none" xmlns="http://www.w3.org/2000/svg">
<g clip-path="url(#clip0_2_3088)">
<path d="M1.06445 21.3889H13.7485V17.8329H5.60045V1.3689H1.06445V21.3889Z" fill="black"/>
<path d="M22.0869 18.6169C19.7909 18.6169 18.5029 16.9369 18.5029 14.1369V13.9129C18.5029 11.1129 19.8469 9.48894 22.0869 9.48894C24.3549 9.48894 25.6709 11.1689 25.6709 13.9689V14.1649C25.6709 16.9369 24.3549 18.6169 22.0869 18.6169ZM22.0589 21.6969C26.4549 21.6969 29.7869 18.7569 29.7869 14.1369V13.9129C29.7869 9.34894 26.4829 6.40894 22.0869 6.40894C17.6909 6.40894 14.3589 9.40494 14.3589 13.9969V14.2209C14.3589 18.7849 17.6909 21.6969 22.0589 21.6969Z" fill="black"/>
<path d="M38.165 26.7929C42.981 26.7929 45.8649 24.5809 45.8929 20.2409V6.74494H41.861V8.92894C41.021 7.44494 39.5929 6.40894 37.2129 6.40894C33.5729 6.40894 30.7729 9.34894 30.7729 13.5489V13.7449C30.7729 18.0849 33.6009 20.7449 37.1569 20.7449C39.3129 20.7449 41.049 19.4569 41.861 18.0289V20.2409C41.861 22.5369 40.629 23.8249 38.165 23.8249C36.093 23.8249 35.169 22.9849 34.917 21.6969H30.8849C31.2769 24.7209 33.433 26.7929 38.165 26.7929ZM38.361 17.6929C36.345 17.6929 34.917 16.1809 34.917 13.7449V13.5209C34.917 11.1129 36.177 9.48894 38.445 9.48894C40.6569 9.48894 41.9729 11.0009 41.9729 13.4929V13.6889C41.9729 16.1809 40.489 17.6929 38.361 17.6929Z" fill="black"/>
<path d="M55.4619 18.6169C53.1659 18.6169 51.8779 16.9369 51.8779 14.1369V13.9129C51.8779 11.1129 53.2219 9.48894 55.4619 9.48894C57.7299 9.48894 59.0459 11.1689 59.0459 13.9689V14.1649C59.0459 16.9369 57.7299 18.6169 55.4619 18.6169ZM55.4339 21.6969C59.8299 21.6969 63.1619 18.7569 63.1619 14.1369V13.9129C63.1619 9.34894 59.8579 6.40894 55.4619 6.40894C51.0659 6.40894 47.7339 9.40494 47.7339 13.9969V14.2209C47.7339 18.7849 51.0659 21.6969 55.4339 21.6969Z" fill="black"/>
</g>
<defs>
<clipPath id="clip0_2_3088">
<rect width="63" height="27" fill="white" transform="translate(0.5 0.388916)"/>
</clipPath>
</defs>
</svg>
