<?xml version="1.0" encoding="UTF-8" standalone="no"?>
<!-- Uploaded to: SVG Repo, www.svgrepo.com, Generator: SVG Repo Mixer Tools -->

<svg
   fill="#000000"
   height="48"
   width="48"
   version="1.1"
   id="Layer_1"
   viewBox="0 0 30.72 30.72"
   xml:space="preserve"
   sodipodi:docname="bet-sizing.svg"
   inkscape:version="1.3 (0e150ed, 2023-07-21)"
   xmlns:inkscape="http://www.inkscape.org/namespaces/inkscape"
   xmlns:sodipodi="http://sodipodi.sourceforge.net/DTD/sodipodi-0.dtd"
   xmlns="http://www.w3.org/2000/svg"
   xmlns:svg="http://www.w3.org/2000/svg"><defs
   id="defs11" /><sodipodi:namedview
   id="namedview11"
   pagecolor="#ffffff"
   bordercolor="#000000"
   borderopacity="0.25"
   inkscape:showpageshadow="2"
   inkscape:pageopacity="0.0"
   inkscape:pagecheckerboard="0"
   inkscape:deskcolor="#d1d1d1"
   inkscape:zoom="0.87476362"
   inkscape:cx="129.17775"
   inkscape:cy="114.3166"
   inkscape:window-width="1312"
   inkscape:window-height="449"
   inkscape:window-x="0"
   inkscape:window-y="25"
   inkscape:window-maximized="0"
   inkscape:current-layer="Layer_1" />&#10;<g
   id="g11"
   transform="matrix(0.06,0,0,0.06000234,0,-6.000234e-4)"
   style="fill:#ffffff">&#10;	<g
   id="g10"
   style="fill:#ffffff">&#10;		<g
   id="g9"
   style="fill:#ffffff">&#10;			<path
   d="m 256.006,85.344 c 6.741,0 13.376,0.491 19.925,1.259 0.469,0.043 0.939,0.021 1.408,0.085 V 1.077 C 270.278,0.501 263.216,0.01 256.006,0.01 c -7.211,0 -14.272,0.491 -21.333,1.067 v 85.611 c 0.469,-0.064 0.939,-0.043 1.408,-0.085 6.549,-0.768 13.184,-1.259 19.925,-1.259 z"
   id="path1"
   style="fill:#ffffff" />&#10;			<path
   d="M 414.108,192 H 503.58 C 480.348,102.272 409.734,31.659 320.006,8.427 v 89.472 c 42.688,17.344 76.758,51.413 94.102,94.101 z"
   id="path2"
   style="fill:#ffffff" />&#10;			<path
   d="M 192.006,97.899 V 8.427 C 102.278,31.659 31.665,102.272 8.433,192 h 89.472 c 17.344,-42.688 51.413,-76.757 94.101,-94.101 z"
   id="path3"
   style="fill:#ffffff" />&#10;			<path
   d="m 510.933,234.677 h -85.611 c 0.064,0.469 0.021,0.939 0.085,1.408 0.768,6.549 1.259,13.163 1.259,19.925 0,6.741 -0.491,13.355 -1.259,19.904 -0.064,0.469 -0.021,0.939 -0.085,1.429 h 85.611 c 0.576,-7.061 1.067,-14.144 1.067,-21.333 0,-7.21 -0.491,-14.293 -1.067,-21.333 z"
   id="path4"
   style="fill:#ffffff" />&#10;			<path
   d="m 377.99,294.72 0.555,-1.835 c 0.064,-0.235 0.107,-0.469 0.171,-0.683 1.536,-5.248 2.645,-10.56 3.52,-15.915 0.192,-1.152 0.384,-2.325 0.533,-3.477 0.747,-5.589 1.237,-11.2 1.237,-16.811 0,-5.611 -0.491,-11.221 -1.237,-16.811 -0.149,-1.152 -0.341,-2.325 -0.533,-3.477 -0.875,-5.355 -1.984,-10.667 -3.52,-15.915 -0.064,-0.213 -0.107,-0.448 -0.171,-0.683 l -0.555,-1.835 c -12.565,-39.445 -43.712,-70.635 -83.136,-83.221 l -2.219,-0.661 c -0.043,0 -0.085,-0.021 -0.149,-0.021 -5.397,-1.621 -10.901,-2.752 -16.405,-3.648 -1.024,-0.149 -2.048,-0.32 -3.072,-0.469 -11.285,-1.515 -22.72,-1.515 -34.005,0 -1.024,0.149 -2.048,0.32 -3.072,0.469 -5.504,0.896 -11.008,2.027 -16.405,3.648 -0.064,0 -0.107,0.021 -0.149,0.021 l -2.219,0.661 c -39.424,12.587 -70.571,43.776 -83.136,83.221 l -0.555,1.835 c -0.064,0.235 -0.107,0.469 -0.171,0.683 -1.536,5.248 -2.645,10.56 -3.52,15.915 -0.192,1.152 -0.384,2.325 -0.533,3.477 -0.747,5.589 -1.237,11.2 -1.237,16.811 0,5.611 0.491,11.221 1.237,16.811 0.149,1.152 0.341,2.325 0.533,3.477 0.875,5.355 1.984,10.667 3.52,15.915 0.064,0.213 0.107,0.448 0.171,0.683 l 0.555,1.835 c 12.565,39.445 43.712,70.635 83.136,83.221 l 2.219,0.661 c 0.043,0 0.085,0.021 0.149,0.021 5.397,1.621 10.901,2.752 16.405,3.648 1.024,0.149 2.048,0.32 3.072,0.469 11.285,1.515 22.72,1.515 34.005,0 1.024,-0.149 2.048,-0.32 3.072,-0.469 5.504,-0.896 11.008,-2.027 16.405,-3.648 0.064,0 0.107,-0.021 0.149,-0.021 l 2.219,-0.661 c 39.424,-12.586 70.571,-43.776 83.136,-83.221 z m -79.317,-60.053 c 11.797,0 21.333,9.557 21.333,21.333 v 64 c 0,11.776 -9.536,21.333 -21.333,21.333 H 213.34 c -11.797,0 -21.333,-9.557 -21.333,-21.333 0,-11.776 9.536,-21.333 21.333,-21.333 h 64 v -21.333 h -64 c -11.797,0 -21.333,-9.557 -21.333,-21.333 v -64 c 0,-11.776 9.536,-21.333 21.333,-21.333 h 85.333 c 11.797,0 21.333,9.557 21.333,21.333 0,11.776 -9.536,21.333 -21.333,21.333 h -64 v 21.333 z"
   id="path5"
   style="fill:#ffffff" />&#10;			<path
   d="m 256.006,426.656 c -6.741,0 -13.376,-0.491 -19.925,-1.259 -0.469,-0.043 -0.939,-0.021 -1.408,-0.085 v 85.611 c 7.061,0.576 14.123,1.067 21.333,1.067 7.211,0 14.272,-0.491 21.333,-1.067 v -85.611 c -0.469,0.064 -0.939,0.043 -1.408,0.085 -6.549,0.768 -13.183,1.259 -19.925,1.259 z"
   id="path6"
   style="fill:#ffffff" />&#10;			<path
   d="m 320.006,414.101 v 89.472 C 409.734,480.341 480.348,409.728 503.58,320 h -89.472 c -17.344,42.688 -51.414,76.757 -94.102,94.101 z"
   id="path7"
   style="fill:#ffffff" />&#10;			<path
   d="M 97.905,320 H 8.433 c 23.232,89.728 93.845,160.341 183.573,183.573 V 414.101 C 149.318,396.757 115.249,362.688 97.905,320 Z"
   id="path8"
   style="fill:#ffffff" />&#10;			<path
   d="m 86.613,275.925 c -0.768,-6.549 -1.28,-13.184 -1.28,-19.925 0,-6.741 0.512,-13.376 1.28,-19.925 0.043,-0.469 0.021,-0.939 0.085,-1.408 H 1.088 C 0.512,241.728 0,248.789 0,256 c 0,7.211 0.512,14.272 1.088,21.333 h 85.611 c -0.064,-0.469 -0.043,-0.938 -0.086,-1.408 z"
   id="path9"
   style="fill:#ffffff" />&#10;		</g>&#10;	</g>&#10;</g>&#10;</svg>
