
<svg viewBox="0 0 24 20" width="24" height="20" xmlns="http://www.w3.org/2000/svg" >
  <g
     id="open-book"
     transform="matrix(0.54466099,0,0,0.54466099,-1.089322,-3.0990546)">
    <path
       d="m 31.56,5.69 h 9.7 V 30.76 H 30.64 30.05 29.72 l -0.61,0.06 H 28.74 L 28.09,30.93 27.73,31 c -0.26,0.06 -0.52,0.14 -0.78,0.22 l -0.23,0.07 a 6.93,6.93 0 0 0 -1,0.42 l -0.23,0.14 a 5.42,5.42 0 0 0 -0.53,0.33 V 12.24 a 6.56,6.56 0 0 1 6.6,-6.55 z m -24.82,0 h 9.7 A 6.56,6.56 0 0 1 23,12.24 V 32.29 A 5.4,5.4 0 0 0 22.48,31.96 L 22.24,31.81 A 7.1,7.1 0 0 0 21.29,31.39 L 21,31.33 C 20.75,31.25 20.49,31.17 20.24,31.11 L 19.91,31 19.27,30.89 h -0.38 l -0.6,-0.06 H 17.95 17.36 6.74 Z M 46,35.7 a 0.75,0.75 0 0 1 -0.75,0.74 H 32.8 c -5.72,0 -8.05,1.48 -8.05,5.12 a 0.745,0.745 0 1 1 -1.49,0 c 0,-3.64 -2.33,-5.12 -8,-5.12 H 2.75 A 0.75,0.75 0 0 1 2,35.7 V 8.87 A 0.75,0.75 0 0 1 2.75,8.12 h 2 v 23.65 a 1,1 0 0 0 1,1 h 10.69 c 5.43,0 6.55,1.61 6.55,4 a 1,1 0 1 0 2,0 c 0,-2.42 1.11,-4 6.55,-4 h 10.73 a 1,1 0 0 0 1,-1 V 8.12 h 2 a 0.75,0.75 0 0 1 0.75,0.75 z"
       fill="#currentColor"
       id="path1" />
  </g>
</svg>
