<?xml version="1.0" encoding="UTF-8" standalone="no"?>
<svg
   width="25"
   height="25"
   viewBox="0 0 25 25"
   fill="none"
   version="1.1"
   id="svg1"
   sodipodi:docname="check.svg"
   inkscape:version="1.3 (0e150ed, 2023-07-21)"
   xmlns:inkscape="http://www.inkscape.org/namespaces/inkscape"
   xmlns:sodipodi="http://sodipodi.sourceforge.net/DTD/sodipodi-0.dtd"
   xmlns="http://www.w3.org/2000/svg"
   xmlns:svg="http://www.w3.org/2000/svg">
  <defs
     id="defs1" />
  <sodipodi:namedview
     id="namedview1"
     pagecolor="#ffffff"
     bordercolor="white"
     borderopacity="0.25"
     inkscape:showpageshadow="2"
     inkscape:pageopacity="0.0"
     inkscape:pagecheckerboard="0"
     inkscape:deskcolor="#d1d1d1"
     inkscape:zoom="9.44"
     inkscape:cx="12.5"
     inkscape:cy="12.5"
     inkscape:window-width="1312"
     inkscape:window-height="449"
     inkscape:window-x="0"
     inkscape:window-y="25"
     inkscape:window-maximized="0"
     inkscape:current-layer="svg1" />
  <path
     d="M 16.822476,1.6019756 6.2224763,12.201936 c -0.0939,0.0947 -0.2217,0.1479 -0.355,0.1479 -0.13332,0 -0.26112,-0.0532 -0.355,-0.1479 L 0.12247627,6.8119356 c -0.09466,-0.0938 -0.1479,-0.2216 -0.1479,-0.355 0,-0.1333 0.05324,-0.2611 0.1479,-0.355 l 0.7,-0.7 c 0.09388,-0.0946 0.22168003,-0.1479 0.35500003,-0.1479 0.13332,0 0.26112,0.0533 0.355,0.1479 l 4.33,4.33 9.5499997,-9.54996001 c 0.1978,-0.19179 0.5122,-0.19179 0.71,0 l 0.7,0.71 c 0.0947,0.09388 0.1479,0.22168001 0.1479,0.35500001 0,0.13332 -0.0532,0.26111 -0.1479,0.355 z"
     fill="white"
     id="path1"
     style="fill:#f9f9f9" />
</svg>
