<svg fill="none" width="14" height="6" viewBox="0 0 8.96 3.84" xmlns="http://www.w3.org/2000/svg">
  <path d="M 8.3026978,1.0713159 H 0.26782897 C 0.12052305,1.0713159 0,0.95079282 0,0.8034869 V 0.26782897 C 0,0.12052305 0.12052305,0 0.26782897,0 H 8.3026978 C 8.4500036,0 8.570527,0.12052305 8.570527,0.26782897 V 0.8034869 c 0,0.14730592 -0.1205234,0.267829 -0.2678292,0.267829 z m 0,2.1426316 H 0.26782897 C 0.12052305,3.2139475 0,3.0934246 0,2.9461187 V 2.4104608 C 0,2.263155 0.12052305,2.1426316 0.26782897,2.1426316 H 8.3026978 c 0.1473058,0 0.2678292,0.1205234 0.2678292,0.2678292 v 0.5356579 c 0,0.1473059 -0.1205234,0.2678288 -0.2678292,0.2678288 z"/>
</svg>
