<svg width="25" height="25" viewBox="0 0 25 25" fill="none" xmlns="http://www.w3.org/2000/svg">
<path fill-rule="evenodd" clip-rule="evenodd" d="M16.5 3.74268H8.5C5.73858 3.74268 3.5 5.98126 3.5 8.74268V16.7427C3.5 19.5041 5.73858 21.7427 8.5 21.7427H16.5C19.2614 21.7427 21.5 19.5041 21.5 16.7427V8.74268C21.5 5.98126 19.2614 3.74268 16.5 3.74268ZM19.75 16.7427C19.7445 18.5353 18.2926 19.9872 16.5 19.9927H8.5C6.70735 19.9872 5.25549 18.5353 5.25 16.7427V8.74268C5.25549 6.95003 6.70735 5.49817 8.5 5.49268H16.5C18.2926 5.49817 19.7445 6.95003 19.75 8.74268V16.7427ZM17.25 8.99268C17.8023 8.99268 18.25 8.54496 18.25 7.99268C18.25 7.4404 17.8023 6.99268 17.25 6.99268C16.6977 6.99268 16.25 7.4404 16.25 7.99268C16.25 8.54496 16.6977 8.99268 17.25 8.99268ZM12.5 8.24268C10.0147 8.24268 8 10.2574 8 12.7427C8 15.228 10.0147 17.2427 12.5 17.2427C14.9853 17.2427 17 15.228 17 12.7427C17.0027 11.5484 16.5294 10.4022 15.6849 9.55776C14.8404 8.71327 13.6943 8.24002 12.5 8.24268ZM9.75 12.7427C9.75 14.2615 10.9812 15.4927 12.5 15.4927C14.0188 15.4927 15.25 14.2615 15.25 12.7427C15.25 11.2239 14.0188 9.99268 12.5 9.99268C10.9812 9.99268 9.75 11.2239 9.75 12.7427Z" fill="black"/>
</svg>
