<svg
   fill="white"
   width="25"
   height="25"
   viewBox="0 0 0.6 0.6"
   data-name="Instagram w/circle"
   version="1.1"
   id="svg1"
   sodipodi:docname="instagram-with-circle-svgrepo-com.svg"
   inkscape:version="1.3 (0e150ed, 2023-07-21)"
   xmlns:inkscape="http://www.inkscape.org/namespaces/inkscape"
   xmlns:sodipodi="http://sodipodi.sourceforge.net/DTD/sodipodi-0.dtd"
   xmlns="http://www.w3.org/2000/svg"
   xmlns:svg="http://www.w3.org/2000/svg">
  <defs
     id="defs1" />
  <sodipodi:namedview
     id="namedview1"
     pagecolor="#ffffff"
     bordercolor="#000000"
     borderopacity="0.25"
     inkscape:showpageshadow="2"
     inkscape:pageopacity="0.0"
     inkscape:pagecheckerboard="0"
     inkscape:deskcolor="#d1d1d1"
     inkscape:zoom="0.295"
     inkscape:cx="400"
     inkscape:cy="400"
     inkscape:window-width="1312"
     inkscape:window-height="449"
     inkscape:window-x="201"
     inkscape:window-y="760"
     inkscape:window-maximized="0"
     inkscape:current-layer="svg1" />
  <path
     d="M 0.4218125,0.20784375 A 0.05175,0.05175 0 0 0 0.392125,0.1781875 0.0864375,0.0864375 0 0 0 0.363125,0.1728125 C 0.34665625,0.1720625 0.34171875,0.171875 0.3,0.171875 c -0.0417187,0 -0.0466563,1.875e-4 -0.063125,9.375e-4 a 0.0864375,0.0864375 0 0 0 -0.0290313,0.005375 0.05175,0.05175 0 0 0 -0.0296562,0.0296875 0.0864375,0.0864375 0 0 0 -0.005375,0.029 C 0.1720625,0.25334375 0.171875,0.25828125 0.171875,0.3 c 0,0.0417188 1.875e-4,0.0466563 9.375e-4,0.063125 a 0.0864375,0.0864375 0 0 0 0.005375,0.0290313 0.05175,0.05175 0 0 0 0.0296875,0.0296562 0.0864375,0.0864375 0 0 0 0.029,0.005375 c 0.0164687,7.5e-4 0.0214063,9.06e-4 0.063125,9.06e-4 0.0417188,0 0.0466563,-1.5625e-4 0.063125,-9.375e-4 a 0.0864375,0.0864375 0 0 0 0.0290313,-0.005344 0.05175,0.05175 0 0 0 0.0296562,-0.0296875 0.0864375,0.0864375 0 0 0 0.005375,-0.029 c 7.5e-4,-0.0164687 9.06e-4,-0.0214062 9.06e-4,-0.063125 0,-0.0417187 -1.5625e-4,-0.0466563 -9.375e-4,-0.063125 A 0.0864375,0.0864375 0 0 0 0.4218125,0.20784375 Z M 0.3,0.38025 A 0.08025,0.08025 0 1 1 0.38025,0.3 0.08025,0.08025 0 0 1 0.3,0.38025 Z M 0.3834063,0.23534375 a 0.01875,0.01875 0 1 1 0.01875,-0.01875 0.01875,0.01875 0 0 1 -0.01875,0.01875 z M 0.35209375,0.3 A 0.05209375,0.05209375 0 1 1 0.3,0.24790625 0.05209375,0.05209375 0 0 1 0.35209375,0.3 Z M 0.3,0 A 0.3,0.3 0 1 0 0.6,0.3 0.3,0.3 0 0 0 0.3,0 Z M 0.4553125,0.36440625 A 0.1146875,0.1146875 0 0 1 0.4480315,0.40234375 0.079875,0.079875 0 0 1 0.402344,0.44803125 0.1146875,0.1146875 0 0 1 0.3644375,0.4553125 C 0.34775,0.4560625 0.3424375,0.45625 0.3,0.45625 c -0.0424375,0 -0.04775,-1.875e-4 -0.0644375,-9.375e-4 A 0.1146875,0.1146875 0 0 1 0.19765625,0.44803125 0.079875,0.079875 0 0 1 0.15196875,0.40234375 0.1146875,0.1146875 0 0 1 0.1446875,0.3644375 C 0.1439375,0.34775 0.14375,0.3424375 0.14375,0.3 c 0,-0.0424375 1.875e-4,-0.04775 9.375e-4,-0.0644375 a 0.1146875,0.1146875 0 0 1 0.00725,-0.0379063 0.079875,0.079875 0 0 1 0.0457188,-0.0457188 0.1146875,0.1146875 0 0 1 0.0379063,-0.00725 C 0.25225,0.1439375 0.2575625,0.14375 0.3,0.14375 c 0.0424375,0 0.04775,1.875e-4 0.0644375,9.375e-4 a 0.1146875,0.1146875 0 0 1 0.0379062,0.00725 0.079875,0.079875 0 0 1 0.0456875,0.0457188 0.1146875,0.1146875 0 0 1 0.007281,0.0379063 C 0.4560625,0.25225 0.45625,0.2575625 0.45625,0.3 c 0,0.0424375 -1.875e-4,0.04775 -9.375e-4,0.0644375 z"
     id="path1"
     style="stroke-width:0" />
</svg>