<?xml version="1.0" encoding="UTF-8" standalone="no"?>
<!-- Uploaded to: SVG Repo, www.svgrepo.com, Generator: SVG Repo Mixer Tools -->

<svg
   width="48"
   height="48"
   viewBox="0 0 2.88 2.88"
   version="1.1"
   id="svg1"
   sodipodi:docname="machine-learning.svg"
   inkscape:version="1.3 (0e150ed, 2023-07-21)"
   xmlns:inkscape="http://www.inkscape.org/namespaces/inkscape"
   xmlns:sodipodi="http://sodipodi.sourceforge.net/DTD/sodipodi-0.dtd"
   xmlns="http://www.w3.org/2000/svg"
   xmlns:svg="http://www.w3.org/2000/svg"
   xmlns:rdf="http://www.w3.org/1999/02/22-rdf-syntax-ns#"
   xmlns:cc="http://creativecommons.org/ns#"
   xmlns:dc="http://purl.org/dc/elements/1.1/">
  <defs
     id="defs1" />
  <sodipodi:namedview
     id="namedview1"
     pagecolor="#ffffff"
     bordercolor="#000000"
     borderopacity="0.25"
     inkscape:showpageshadow="2"
     inkscape:pageopacity="0.0"
     inkscape:pagecheckerboard="0"
     inkscape:deskcolor="#d1d1d1"
     inkscape:zoom="2.6486946"
     inkscape:cx="81.172061"
     inkscape:cy="35.48918"
     inkscape:window-width="1312"
     inkscape:window-height="449"
     inkscape:window-x="0"
     inkscape:window-y="25"
     inkscape:window-maximized="0"
     inkscape:current-layer="Q3_icons" />
  <title
     id="title1">machine-learning-solid</title>
  <g
     id="Layer_2"
     data-name="Layer 2"
     transform="matrix(0.06,0,0,0.06,3.4493865,-4.0899869)">
    <g
       id="invisible_box"
       data-name="invisible box">
      <rect
         width="48"
         height="48"
         fill="none"
         id="rect1"
         x="0"
         y="0" />
    </g>
    <g
       id="Q3_icons"
       data-name="Q3 icons">
      <path
         d="m -40.033236,85.620993 v 13.090908 h 13.086921 V 85.620993 Z m 9.815191,9.818181 h -6.54346 V 88.89372 h 6.54346 z m -9.815191,-9.818181 v 13.090908 h 13.086921 V 85.620993 Z m 9.815191,9.818181 h -6.54346 V 88.89372 h 6.54346 z m -9.815191,-9.818181 v 13.090908 h 13.086921 V 85.620993 Z m 9.815191,9.818181 h -6.54346 V 88.89372 h 6.54346 z m -9.815191,-9.818181 v 13.090908 h 13.086921 V 85.620993 Z m 9.815191,9.818181 h -6.54346 V 88.89372 h 6.54346 z M -9.9333172,86.384629 -14.94997,82.239175 v -8.072727 a 1.0905768,1.090909 0 0 0 -0.654346,-0.981818 l -10.79671,-4.909091 h -0.436231 l -0.654346,0.218182 -5.998172,3.927272 -5.998172,-4.036363 -0.654346,-0.218182 h -0.436231 l -10.79671,5.018182 a 1.0905768,1.090909 0 0 0 -0.654346,0.981818 v 8.072727 l -5.016653,4.145454 a 0.87246141,0.87272723 0 0 0 -0.436231,0.872727 v 9.818182 a 0.98151908,0.98181814 0 0 0 0.436231,0.872727 l 5.016653,4.145455 v 8.07273 a 1.0905768,1.090909 0 0 0 0.654346,0.98182 l 10.79671,4.90909 h 0.436231 l 0.654346,-0.21818 5.998172,-3.92728 5.998172,4.03637 0.654346,0.21818 h 0.436231 l 10.79671,-4.90909 a 1.0905768,1.090909 0 0 0 0.654346,-0.98182 v -8.18182 l 5.0166528,-4.145455 a 0.98151908,0.98181814 0 0 0 0.4362307,-0.872727 V 87.257356 A 0.87246141,0.87272723 0 0 0 -9.9333172,86.384629 Z M -26.401026,73.620993 a 1.6358651,1.6363636 0 1 1 -1.635865,1.636364 1.6358651,1.6363636 0 0 1 1.635865,-1.636364 z m -14.177498,0 a 1.6358651,1.6363636 0 1 1 -1.635865,1.636364 1.6358651,1.6363636 0 0 1 1.635865,-1.636364 z m 0,37.090907 a 1.6358651,1.6363636 0 1 1 1.635865,-1.63636 1.6358651,1.6363636 0 0 1 -1.635865,1.63636 z m 14.177498,0 a 1.6358651,1.6363636 0 1 1 1.635865,-1.63636 1.6358651,1.6363636 0 0 1 -1.635865,1.63636 z m 4.362307,-17.454544 a 1.6358651,1.6363636 0 0 1 0,3.272727 h -1.635865 v 3.272727 a 2.1811535,2.1818181 0 0 1 -2.181154,2.18182 h -3.27173 v 1.63636 a 1.6358651,1.6363636 0 0 1 -3.27173,0 v -1.63636 h -2.181154 v 1.63636 a 1.6358652,1.6363637 0 0 1 -3.27173,0 v -1.63636 h -3.27173 a 2.1811535,2.1818181 0 0 1 -2.181154,-2.18182 v -3.272727 h -1.635865 a 1.6358651,1.6363636 0 0 1 0,-3.272727 h 1.635865 v -2.181818 h -1.635865 a 1.6358651,1.6363636 0 0 1 0,-3.272727 h 1.635865 v -3.272727 a 2.1811535,2.1818181 0 0 1 2.181154,-2.181818 h 3.27173 v -1.636364 a 1.6358652,1.6363637 0 0 1 3.27173,0 v 1.636364 h 2.181154 v -1.636364 a 1.6358651,1.6363636 0 0 1 3.27173,0 v 1.636364 h 3.27173 a 2.1811535,2.1818181 0 0 1 2.181154,2.181818 v 3.272727 h 1.635865 a 1.6358651,1.6363636 0 0 1 0,3.272727 h -1.635865 v 2.181818 z m -17.994517,5.454545 h 13.086921 V 85.620993 h -13.086921 z m 3.271731,-9.818181 h 6.54346 v 6.545454 h -6.54346 z m -3.271731,-3.272727 v 13.090908 h 13.086921 V 85.620993 Z m 9.815191,9.818181 h -6.54346 V 88.89372 h 6.54346 z m -9.815191,-9.818181 v 13.090908 h 13.086921 V 85.620993 Z m 9.815191,9.818181 h -6.54346 V 88.89372 h 6.54346 z"
         id="path1"
         style="fill:#ffffff;stroke-width:1.09075" />
    </g>
  </g>
  <metadata
     id="metadata1">
    <rdf:RDF>
      <cc:Work
         rdf:about="">
        <dc:title>machine-learning-solid</dc:title>
      </cc:Work>
    </rdf:RDF>
  </metadata>
</svg>
