<svg width="24" height="24" viewBox="0 0 6.3499999 6.35" version="1.1" id="svg1"

          inkscape:version="1.3 (0e150ed, 2023-07-21)" sodipodi:docname="cmon.svg"
          xmlns:inkscape="http://www.inkscape.org/namespaces/inkscape"
          xmlns:sodipodi="http://sodipodi.sourceforge.net/DTD/sodipodi-0.dtd" xmlns="http://www.w3.org/2000/svg"
          class="img"
          xmlns:svg="http://www.w3.org/2000/svg">
          <sodipodi:namedview id="namedview1" pagecolor="#ffffff" bordercolor="#000000" borderopacity="0.25"
            inkscape:showpageshadow="2" inkscape:pageopacity="0.0" inkscape:pagecheckerboard="0"
            inkscape:deskcolor="#d1d1d1" inkscape:document-units="mm" inkscape:zoom="28.553171" inkscape:cx="16.898298"
            inkscape:cy="13.816329" inkscape:window-width="1792" inkscape:window-height="1092" inkscape:window-x="0"
            inkscape:window-y="28" inkscape:window-maximized="0" inkscape:current-layer="layer1" />
          <defs id="defs1" />
          <g inkscape:label="Layer 1" inkscape:groupmode="layer" id="layer1">
            <g id="g12" transform="matrix(0.00292565,0,0,0.00288912,-6.2226513,-0.2541611)">
              <path id="path4" style="fill:currentColor;fill-opacity:1;fill-rule:nonzero;stroke:none;stroke-width:0.133333"
                d="m 2958.7939,110.64607 c -9.2933,0 -18.5493,0.3868 -27.7813,1.5468 -34.3638,4.34667 -65.0429,17.42653 -91.3789,39.83987 -42.8372,36.45333 -64.0253,83.22773 -64.0293,139.41399 -0.049,601.77172 -0.031,1203.56057 -0.029,1805.33207 0,8.8533 0.3779,17.6805 1.4766,26.4805 4.7493,38.0532 20.0568,71.3076 46.25,99.1875 35.9132,38.2399 80.5502,56.8382 132.8848,56.8516 173.3675,0.053 346.7283,0.027 520.0879,0.027 0.7334,0 1.4795,-0.067 2.2128,0 3.24,0.3333 3.0668,-1.1593 1.7735,-3.2793 -2.6133,-4.2666 -4.8249,-8.8677 -7.9316,-12.7344 -7.64,-9.5199 -9.8277,-20.4123 -9.7344,-32.2656 0.2133,-28.3332 2.5473,-56.5615 4.0273,-84.8281 1.1734,-22.3733 3.4652,-44.7065 3.1719,-67.1465 -0.093,-7.16 -0.6929,-14.1068 -5.2129,-20.1602 -1.0934,-1.4666 -1.4934,-3.5053 -2,-5.332 -2.08,-7.44 -2.8524,-15.0665 -2.7324,-22.7598 0.2266,-15.6399 -3.361,-30.3473 -10.2676,-44.3339 -4.7067,-9.4934 -9.2254,-19.0673 -13.9454,-28.5606 -9.0929,-18.3066 -18.8805,-36.279 -27.2538,-54.959 -4.24,-9.48 -5.4795,-18.7606 -1.2128,-28.5605 2.8796,-6.6267 2.5052,-13.453 0.1718,-20.293 -3.2,-9.3466 -7.2394,-18.3193 -11.3594,-27.2793 -5.0667,-10.9999 -12.7992,-19.695 -22.5859,-26.6816 -20.7467,-14.7866 -41.9597,-28.9325 -61.9864,-44.7324 -40.8263,-32.2133 -78.2548,-68.1464 -115.2148,-104.5997 -56.12,-55.3598 -106.0273,-115.8548 -150.3203,-181.0546 -23.7866,-34.9866 -45.3596,-71.3326 -66.7129,-107.8125 -6.9306,-11.84 -15.5428,-19.3076 -30.332,-18.5743 -9.848,0.48 -18.0576,-4.6934 -24.8243,-11.7734 -2.4733,-2.6 -4.2127,-5.573 -4.7207,-9.293 -0.2933,-2.1466 -1.1684,-4.2393 -2.0097,-6.2793 -9.7507,-23.5199 -20.907,-46.41 -31.8497,-69.3925 -14.9892,-31.4786 -30.6117,-62.6792 -42.4277,-95.5684 -9.3319,-25.976 -13.9159,-52.5727 -11.1719,-80.2794 2.052,-20.7196 6.721,-40.9606 10.2637,-61.414 4.3493,-25.09328 13.5368,-47.41288 32.3848,-65.21288 3.9306,-3.72 7.1032,-8.29267 9.3086,-13.35934 2.5293,-5.8 1.1307,-9.4536 -4.6133,-12.24026 -2.7947,-1.36 -5.7791,-2.1464 -8.8164,-2.75974 -13.8933,-2.8 -28.0514,-3.4932 -42.082,-5.14653 -14.2093,-1.69333 -23.9302,-7.9464 -27.6036,-22.45306 -2.0173,-7.97334 -4.8596,-15.7336 -7.2382,-23.62694 -4.1853,-13.86666 -5.8046,-27.5868 -1.7246,-42.08013 8.8759,-31.54667 20.6924,-61.96027 33.7324,-91.91986 18.9679,-43.57334 39.7363,-86.34814 57.5429,-130.42773 12.4173,-30.74667 25.8293,-60.98667 42.6719,-89.5996 13.868,-23.56 29.2466,-46.00027 48.5625,-65.5332 13.924,-14.08 30.1946,-23.52067 49.7813,-27.64067 26.9733,-5.65333 54.1731,-9.75906 81.3731,-13.95906 15.8529,-2.44 31.8004,-4.20107 47.4804,-7.8144 14.12,-3.26667 22.6938,-11.67814 25.8534,-25.77147 3.7334,-16.70666 6.2127,-33.602 7.2794,-50.6816 0.3866,-6.14666 -0.227,-12.21346 -3.627,-17.4668 -8.8933,-13.70666 -10.8398,-28.87893 -10.8398,-44.79893 0,-11.06667 3.2681,-19.2676 14.121,-23.3476 0.8267,-0.30667 1.5588,-0.85227 2.3322,-1.2656 5.5333,-3.02667 8.3061,-7.71973 8.5194,-13.9864 0.1467,-4.57333 0.4272,-9.14693 0.4806,-13.70693 0.1466,-10.78667 0.9598,-21.50613 3.3065,-32.0528 3.7333,-16.85333 11.9211,-31.25347 24.0411,-43.4668 5.7733,-5.81333 11.4925,-11.68067 18.1192,-18.414 h -6.3458 c -92.4262,0 -184.8686,0.0133 -277.2949,0 z m -52.1426,1768.25383 c 3.4893,-0.027 4.3583,1.2924 5.0449,4.3457 13.1587,58.5999 26.4331,117.1613 39.6797,175.7344 0.1827,0.8 0.1194,1.7185 1.4981,2.4785 v -5 c 0,-57.2265 -0.01,-114.4529 0.012,-171.666 0,-6.6133 -0.7835,-5.7738 5.9805,-5.7871 16.6573,-0.027 33.3153,0.08 49.9688,-0.08 3.36,-0.04 4.1874,0.9466 4.1874,4.2266 -0.093,96.3064 -0.093,192.6135 0,288.9199 0,3.4533 -0.8941,4.4681 -4.4141,4.4414 -20.6345,-0.16 -41.2742,-0.147 -61.9101,-0.014 -3.2186,0.027 -4.4762,-0.8261 -5.2402,-4.1328 -13.436,-58.2265 -27.0374,-116.415 -40.6133,-174.6015 -0.3214,-1.3867 -0.7657,-2.7318 -1.1524,-4.0918 -0.2186,0.027 -0.4376,0.052 -0.6562,0.092 v 5.1074 c 0,57.5198 -0.045,115.0407 0.098,172.5605 0.011,4.1067 -1.0839,5.1452 -5.1132,5.0918 -16.948,-0.2266 -33.9043,-0.2 -50.8536,0 -3.5986,0.04 -4.3047,-1.0931 -4.3007,-4.4531 0.085,-96.3064 0.085,-192.6135 0,-288.9199 0,-3.2267 0.6894,-4.2669 4.1054,-4.2403 21.2266,0.1734 42.4544,0.1883 63.6797,-0.012 z m 142.7305,0 c 30.0666,0.1867 60.1462,0.079 90.2129,0.1192 7.9733,0 15.8936,0.6534 23.6269,2.7734 20.2267,5.5333 33.6671,18.4526 40.0938,38.1992 7.1733,22.0533 7.0929,44.4546 -0.094,66.5078 -5.3466,16.4133 -15.6541,28.5458 -33.1074,33.7325 20.2133,3.4 32.0272,16.0403 39.1738,34.0136 2.9067,7.2934 4.746,14.9204 5.3594,22.7071 1.52,19.7199 0.415,39.2409 -6.9316,57.8808 -10.28,26.04 -30.1743,39.7191 -57.5743,41.0391 -34.3064,1.6533 -68.6807,0.3329 -103.0273,0.5996 -2.24,0.013 -3.332,-0.5994 -3.0254,-2.9727 0.08,-0.72 0,-1.4678 0,-2.2011 0,-95.7332 0.04,-191.4521 -0.094,-287.1719 -0.013,-4.3867 1.2267,-5.2532 5.3867,-5.2266 z m 307.1192,0.012 c 2.8666,-0.04 3.8,1.0409 4.3066,3.5743 12.9866,64.5199 26.0007,129.0129 39.0274,193.5195 6.3866,31.6 12.7858,63.1871 19.1992,94.7871 1.1466,5.6533 1.174,5.6406 -4.586,5.6406 -19.4534,0 -38.9064,-0.093 -58.3731,0.08 -3.64,0.04 -4.6267,-1.1073 -5,-4.6406 -1.5867,-14.6533 -3.5873,-29.2542 -5.334,-43.8809 -0.32,-2.7066 -1.3588,-3.6263 -4.1855,-3.5996 -14.5866,0.1467 -29.1868,0.1467 -43.7734,0 -3.0134,-0.027 -3.907,0.8945 -4.2403,3.8945 -1.6133,14.4934 -3.6132,28.9462 -5.3065,43.4395 -0.4,3.44 -1.334,4.8932 -5.334,4.8398 -19.4534,-0.28 -38.9064,-0.1328 -58.3731,-0.1328 -5.3067,0 -5.3471,-0.013 -4.3204,-5.0801 19.44,-96.2399 38.9207,-192.4814 58.254,-288.748 0.6267,-3.1067 1.8653,-3.679 4.6387,-3.6523 12.24,0.1066 24.467,0.039 36.707,0.039 12.2266,0 24.4667,0.1066 36.6934,-0.08 z" />
              <path id="path5"
                d="m 3669.9415,1297.9392 c 1.16,1.8134 0.72,3.3067 0.72,4.68 0.027,265.76 0.053,531.52 0,797.28 -0.013,80.7067 -51.44,149.9067 -127.6667,172.1734 -1.64,0.48 -3.3066,0.8666 -5.9066,1.5466 4.0533,-5.36 7.4666,-9.96 10.9866,-14.48 15.48,-19.92 19.6934,-42.5866 16.7867,-67.1466 -3.1733,-26.9334 -12.0667,-52.4267 -19.32,-78.3334 -2.6933,-9.64 -5.04,-19.36 -6.3733,-29.32 -0.5734,-4.28 0.68,-8.4266 0.04,-12.76 -1.5067,-10.1733 -6.4,-19.24 -8.9067,-29.0666 -7.9067,-30.96 -13.6133,-62.28 -11.7867,-94.36 1.0667,-18.5334 5.4,-36.7067 10.12,-54.6534 6.0267,-22.9466 3.3334,-44.3466 -9.4933,-64.3733 -5.3867,-8.44 -10.3333,-17.2133 -16.3333,-25.2 -9.6534,-12.8267 -14.52,-27.2133 -17.2934,-42.84 -7.9066,-44.5067 -16.3333,-88.92 -24.6266,-133.3467 -7.6667,-41.1333 -20.7334,-80.2266 -42.84,-116.1066 -10.4934,-17.0267 -19.6534,-34.8534 -27.7067,-53.2134 -10.4933,-23.9866 -16.16,-49.24 -18.6267,-75.1333 -6.0933,-63.88 -15.6533,-127.1427 -31.4,-189.4067 -2.8533,-11.2746 -5.12,-22.696 -6.4266,-34.2733 -0.6134,-5.4227 -0.84,-10.7893 1.08,-16.1507 1.7866,-5.0106 0.7466,-10.252 -0.2,-15.3133 -5.5067,-29.416 -14.24,-58.0027 -22.4534,-86.7093 -8.8266,-30.8267 -17.2133,-61.78668 -28.1466,-91.97335 -4.9867,-13.76 -11.96,-26.08 -22.7734,-36.28 -8.6533,-8.16 -11.56,-18.08 -7.9333,-30.16 9.6667,-32.17333 22.2267,-63.26666 34.48,-94.48 4.56,-11.64 9.2133,-23.25333 13.72,-34.90666 0.9333,-2.42667 2.24,-4.25333 4.48,-5.70667 14.1067,-9.09333 27.7733,-18.86666 42.2667,-27.37333 4.9466,-2.90667 10.0133,-5.65333 15.56,-7.22667 7.7733,-2.2 11.08,-0.29333 12.68,7.6 4.56,22.65334 8.9733,45.34667 13.4533,68.01333 7.5467,38.25334 13.5333,76.85334 25.48,114.12 9.4667,29.53333 23.3467,57.14667 36.8667,84.93333 10.4266,21.42662 21.2133,42.69332 30.08,64.82662 4.04,10.0934 4.1333,8.2134 -4.28,13.1867 -7.6,4.4667 -15.5467,8.36 -23.32,12.52 -37.9867,20.32 -65.12,50.4053 -81.2667,90.3653 -3.8533,9.532 -5.4267,19.5214 -5.84,29.7574 -0.8,20.0506 -2.2267,40.2626 1.6667,60.0026 4.6133,23.4907 16,44.3147 30.7866,62.9147 33.0667,41.5867 76.5867,62.4133 129.6134,61.1733 47.7333,-1.12 87.0933,-21.44 118.9866,-56.64 5.7334,-6.3333 11.2,-12.9066 16.3867,-19.7066 1.9067,-2.5067 2.4667,-5.7867 4.68,-8.4534"
                style="fill:currentColor;fill-opacity:1;fill-rule:nonzero;stroke:none;stroke-width:0.133333" />
              <path id="path6"
                d="m 3670.6882,1145.3686 c -6.36,-7.9414 -12.76,-15.48 -15.7067,-25.1787 -0.72,-2.3653 -2.8667,-4.4787 -4.76,-6.2813 -17.9733,-17.1294 -36.7067,-33.2227 -59.7733,-43.316 -6.2134,-2.72 -10.0534,-7.4134 -12.0667,-13.84 -3.9333,-12.5734 -5.8667,-25.56 -7.5867,-38.52 -5.2266,-39.21335 -16.44,-76.44002 -34.7466,-111.54668 -11.6134,-22.26667 -17.1734,-46.58667 -22.9067,-70.77333 -7.56,-31.84 -13.3467,-64.01334 -16.5733,-96.6 -1.72,-17.33333 -0.8267,-34.78667 -2.0667,-52.16 -2.9333,-41.01333 -10.2,-80.90666 -30.0133,-117.6 -12.2267,-22.66666 -28.6267,-41.73333 -49.48,-56.89333 -18.2534,-13.26667 -36.0134,-27.12 -53.0667,-41.92 -12.5867,-10.94666 -26.48,-20.13333 -41.08,-28.22666 -6.5867,-3.65334 -12.88,-7.77334 -18.3333,-13 -4.72,-4.52 -4.9334,-6.08 -1.9867,-12.01334 3.4533,-6.92 8.2667,-12.88 13.3733,-18.61333 10.32,-11.58667 19.52,-23.94667 27,-37.61333 5.1067,-9.34667 11.8667,-17.49333 19.2934,-25.18667 14.32,-14.84 24.1466,-32.2 27.6933,-52.76 0.2933,-1.73333 0.5733,-3.58666 0.28,-5.28 -2.32,-12.98666 1.04,-25.14666 5.3467,-37.16 5.76,-16.03999 9.6933,-32.33333 9.2,-49.61333 -0.4534,-15.82666 -6.9867,-28.57333 -17.48,-39.86666 -12.1734,-13.09334 -24.72,-25.73334 -39.6134,-35.8 -1.7733,-1.2 -3.56,-2.46667 -5.12,-4.96 1.68,0 2.7867,0 3.8934,0 48.9466,0 97.8933,-0.52 146.8266,0.13333 69.0934,0.92 121.7067,31.44 156.8267,91.02667 16.12,27.35999 22.6933,57.49333 22.68,89.26666 -0.093,283.19999 -0.053,566.38665 -0.053,849.5693 0,1.576 0,3.1507 0,4.7267"
                style="fill:currentColor;fill-opacity:1;fill-rule:nonzero;stroke:none;stroke-width:0.133333" />
              <path id="path10"
                d="m 3108.1415,2084.3659 c 0,-10.7467 0.093,-21.4933 -0.053,-32.24 -0.053,-2.9467 0.5866,-4.28 3.84,-4.08 4.0933,0.2667 8.2266,0.12 12.3466,0.053 8.1467,-0.1333 14.4667,3.4134 18.2,10.3734 9.3067,17.36 9.0267,35.04 -0.2266,52.2933 -3.6267,6.76 -9.92,10.2267 -17.96,9.8667 -3.9734,-0.1867 -7.9734,-0.2934 -11.92,0.04 -3.68,0.32 -4.36,-1.1867 -4.2934,-4.5067 0.1867,-10.5867 0.067,-21.2 0.067,-31.8"
                style="fill:var(--nav-border)currentColor;fill-opacity:1;fill-rule:nonzero;stroke:none;stroke-width:0.133333" />
              <path id="path11"
                d="m 3108.1415,1965.0326 c 0,-8.9734 0.08,-17.9467 -0.053,-26.92 -0.027,-2.4667 0.7066,-3.4667 3.24,-3.32 2.7733,0.1733 5.5866,0.1733 8.3733,0.013 12.8133,-0.7333 18.88,5.4933 22.3067,16.4133 3.32,10.5467 3.1866,21.1867 -1.1734,31.5067 -3.6133,8.5067 -9.64,13.4933 -19.4,12.9333 -4.24,-0.24 -9.9333,1.4 -12.36,-0.7466 -2.8,-2.4934 -0.7733,-8.3067 -0.8933,-12.6667 -0.16,-5.7333 -0.04,-11.4667 -0.04,-17.2133"
                style="var(--nav-border);fill-opacity:1;fill-rule:nonzero;stroke:none;stroke-width:0.133333" />
              <path id="path12"
                d="m 3320.0482,1940.6192 c 5.6266,40.1067 11.2533,80.2134 16.8666,120.3334 0.7334,5.2133 0.6934,5.2133 -4.7066,5.2133 -9.1334,0.013 -18.28,-0.067 -27.4134,0.053 -2.64,0.04 -3.12,-0.6933 -2.7466,-3.3066 5.5866,-39.52 11.0533,-79.0534 16.56,-118.5867 0.1866,-1.28 0.56,-2.5333 0.84,-3.8 0.2,0.027 0.4,0.067 0.6,0.093"
                style="fill:currentColor;fill-opacity:1;fill-rule:nonzero;stroke:none;stroke-width:0.133333" />
            </g>
          </g>
        </svg>