<svg width="33" height="33" viewBox="0 0 33 33" fill="none" xmlns="http://www.w3.org/2000/svg">
<path d="M25.8336 16.167V16.8336C25.8336 17.2018 25.5352 17.5003 25.167 17.5003H17.5003V25.167C17.5003 25.5351 17.2018 25.8336 16.8336 25.8336H16.167C15.7988 25.8336 15.5003 25.5351 15.5003 25.167V17.5003H7.83366C7.46547 17.5003 7.16699 17.2018 7.16699 16.8336V16.167C7.16699 15.7988 7.46547 15.5003 7.83366 15.5003H15.5003V7.83365C15.5003 7.46546 15.7988 7.16699 16.167 7.16699H16.8336C17.2018 7.16699 17.5003 7.46546 17.5003 7.83365V15.5003H25.167C25.5352 15.5003 25.8336 15.7988 25.8336 16.167Z" fill="black"/>
</svg>
