<?xml version="1.0" encoding="UTF-8" standalone="no"?>
<!-- Uploaded to: SVG Repo, www.svgrepo.com, Generator: SVG Repo Mixer Tools -->

<svg
   fill="#000000"
   width="23"
   height="26"
   viewBox="0 0 0.92 1.04"
   version="1.1"
   id="svg1"
   sodipodi:docname="pos_ev_sidebar.svg"
   inkscape:version="1.3 (0e150ed, 2023-07-21)"
   xmlns:inkscape="http://www.inkscape.org/namespaces/inkscape"
   xmlns:sodipodi="http://sodipodi.sourceforge.net/DTD/sodipodi-0.dtd"
   xmlns="http://www.w3.org/2000/svg"
   xmlns:svg="http://www.w3.org/2000/svg"
   xmlns:rdf="http://www.w3.org/1999/02/22-rdf-syntax-ns#"
   xmlns:cc="http://creativecommons.org/ns#"
   xmlns:dc="http://purl.org/dc/elements/1.1/">
  <defs
     id="defs1" />
  <sodipodi:namedview
     id="namedview1"
     pagecolor="#ffffff"
     bordercolor="#000000"
     borderopacity="0.25"
     inkscape:showpageshadow="2"
     inkscape:pageopacity="0.0"
     inkscape:pagecheckerboard="0"
     inkscape:deskcolor="#d1d1d1"
     inkscape:zoom="5.5501483"
     inkscape:cx="10.630347"
     inkscape:cy="8.6484176"
     inkscape:window-width="1312"
     inkscape:window-height="449"
     inkscape:window-x="0"
     inkscape:window-y="25"
     inkscape:window-maximized="0"
     inkscape:current-layer="svg1" />
  <title
     id="title1">plus-database</title>
  <path
     d="m 0.02187441,0.83941968 q 0,0.0513705 0.0503632,0.0946828 0.0503632,0.0433124 0.13799515,0.068494 0.087632,0.025182 0.18936561,0.025182 0.004029,0 0.0110799,0 0.007051,0 0.0100726,-0.00101 Q 0.35024243,0.97741483 0.31095914,0.89784098 0.18303663,0.88575382 0.10245552,0.84143421 0.02187441,0.7971146 0.02187441,0.73264971 Z m 0,-0.18936561 q 0,0.0624504 0.0735303,0.11180629 0.0735303,0.0493559 0.19037287,0.0674867 -0.0120872,-0.0463341 -0.0120872,-0.0846102 0,-0.003022 0.004029,-0.0402906 Q 0.1628913,0.68833006 0.09238283,0.64703226 0.02187433,0.60573446 0.02187433,0.54429135 Z m 0,-0.18835834 q 0,0.0634576 0.0755448,0.11281355 0.0755448,0.0493559 0.19440193,0.0674867 0.0201453,-0.0664794 0.0644649,-0.11885713 -0.0946828,-0.004029 -0.17022759,-0.0251816 -0.0755448,-0.0211525 -0.1198644,-0.0584213 -0.0443196,-0.0372688 -0.0443196,-0.0846102 z m 0,-0.18936561 q 0,0.0513705 0.0503632,0.0946828 0.0503632,0.0433123 0.13799515,0.0695012 0.087632,0.0261889 0.18936561,0.0251816 0.004029,0 0.0120872,-0.001007 0.008058,-0.001007 0.0110799,0 0.0896465,-0.0624504 0.19742372,-0.0624504 0.0171235,0 0.0513704,0.005036 0.049356,-0.0261889 0.0775594,-0.0594286 0.028203,-0.0332397 0.028203,-0.0715157 v -0.0624504 q 0,-0.0513704 -0.050363,-0.0946828 Q 0.67659592,0.07188461 0.58896397,0.04670302 0.50133201,0.02152142 0.39959836,0.02051416 0.29786471,0.01950689 0.21023275,0.04670302 0.1226008,0.07389914 0.0722376,0.11519696 0.02187441,0.15649478 0.02187441,0.20987976 Z M 0.337148,0.74473688 q 0,0.0765521 0.0372688,0.1420242 0.0372688,0.0654721 0.10374818,0.10374818 0.0664794,0.038276 0.14202421,0.038276 0.0755448,0 0.14202417,-0.038276 0.066479,-0.038276 0.1027409,-0.10374818 0.036261,-0.0654721 0.038276,-0.1420242 0,-0.057414 -0.02216,-0.10979176 -0.02216,-0.0523777 -0.060436,-0.0906538 -0.038276,-0.038276 -0.090654,-0.0604358 -0.0523777,-0.0221598 -0.10979167,-0.0221598 -0.057414,0 -0.10979177,0.0221598 -0.0523777,0.0221598 -0.0906537,0.0604358 -0.038276,0.038276 -0.0604358,0.0906538 -0.0221598,0.0523777 -0.0221593,0.10979176 z m 0.12590798,0 q 0,-0.0654721 0.0453269,-0.11079903 0.0453269,-0.0453269 0.11180629,-0.0463341 0.0664794,-0.001007 0.11079899,0.0463341 0.04432,0.0473414 0.046334,0.11079903 0.00201,0.0634576 -0.046334,0.11180629 -0.0483486,0.0483487 -0.11079901,0.0453269 -0.0624504,-0.003022 -0.11180629,-0.0453269 -0.0493559,-0.0423051 -0.0453269,-0.11180629 z m 0.0624504,0.0312252 h 0.0634576 v 0.0634576 h 0.0624504 v -0.0634576 h 0.0634576 v -0.0624504 h -0.0634576 v -0.0634576 h -0.0624504 v 0.0634576 H 0.52550634 Z M 0.74911896,0.42442697 q 0.00604,0.002015 0.028203,0.0141017 v -0.0836029 q 0,0.038276 -0.028203,0.0695012 z"
     id="path1"
     style="stroke-width:0.031477" />
  <metadata
     id="metadata1">
    <rdf:RDF>
      <cc:Work
         rdf:about="">
        <dc:title>plus-database</dc:title>
      </cc:Work>
    </rdf:RDF>
  </metadata>
</svg>
