
<svg
   version="1.0"
   id="Capa_1"
   x="0px"
   y="0px"
   viewBox="0 0 25 25"
   xml:space="preserve"
   sodipodi:docname="Tiktok Black Round.svg"
   width="25"
   height="25"
   inkscape:version="1.3 (0e150ed, 2023-07-21)"
   xmlns:inkscape="http://www.inkscape.org/namespaces/inkscape"
   xmlns:sodipodi="http://sodipodi.sourceforge.net/DTD/sodipodi-0.dtd"
   xmlns="http://www.w3.org/2000/svg"
   xmlns:svg="http://www.w3.org/2000/svg"><defs
   id="defs1" /><sodipodi:namedview
   id="namedview1"
   pagecolor="#ffffff"
   bordercolor="#000000"
   borderopacity="0.25"
   inkscape:showpageshadow="2"
   inkscape:pageopacity="0.0"
   inkscape:pagecheckerboard="0"
   inkscape:deskcolor="#d1d1d1"
   inkscape:zoom="1.3795491"
   inkscape:cx="24.645734"
   inkscape:cy="67.413331"
   inkscape:window-width="1312"
   inkscape:window-height="449"
   inkscape:window-x="0"
   inkscape:window-y="737"
   inkscape:window-maximized="0"
   inkscape:current-layer="Capa_1" />&#10;<path
   d="M 12.5,0 C 5.595703,0 0,5.595703 0,12.5 0,19.404297 5.595703,25 12.5,25 19.404297,25 25,19.404297 25,12.5 25,5.595703 19.404297,0 12.5,0 Z m 6.269531,9.5654295 v 1.6943365 c -0.795898,0 -1.572266,-0.15625 -2.304688,-0.463867 -0.468749,-0.200196 -0.908202,-0.454102 -1.308593,-0.761719 l 0.0098,5.209961 c -0.0055,1.171874 -0.46875,2.27539 -1.308594,3.105468 -0.683593,0.673828 -1.547851,1.103516 -2.490234,1.245117 -0.219727,0.03422 -0.444336,0.04883 -0.673828,0.04883 -1.0058595,0 -1.958008,-0.327148 -2.739258,-0.927734 C 7.8076165,18.603517 7.666015,18.481448 7.534179,18.349612 6.625976,17.451174 6.152343,16.230471 6.235351,14.946291 6.293945,13.969729 6.68457,13.037112 7.3388665,12.309573 c 0.864258,-0.966797 2.0703125,-1.503907 3.3593755,-1.503907 0.224609,0 0.449218,0.01469 0.673828,0.04883 v 0.625 1.743165 c -0.20996,-0.06836 -0.43457,-0.107422 -0.664062,-0.107422 -1.176758,0 -2.1337895,0.961914 -2.114258,2.138672 0.00976,0.756835 0.4248045,1.416015 1.0302735,1.777343 0.288086,0.170898 0.6152345,0.27832 0.9667975,0.297851 0.273437,0.01469 0.537109,-0.02437 0.78125,-0.102539 0.839843,-0.27832 1.450195,-1.069336 1.450195,-2.001952 l 0.0055,-3.486328 V 5.361375 h 2.329101 c 0,0.229492 0.02445,0.4541015 0.06836,0.673828 0.175781,0.883789 0.67382,1.650391 1.367187,2.1728515 0.605469,0.454102 1.357422,0.727539 2.172852,0.727539 0,0 0.0055,0 0.0055,0 v 0.629883 z"
   id="path1"
   style="fill:white;stroke-width:0.0488281" />&#10;</svg>