<svg width="25" height="25" viewBox="0 0 25 25" fill="none" xmlns="http://www.w3.org/2000/svg">
<path d="M20.8479 8.06384L10.2479 18.6638C10.154 18.7585 10.0262 18.8117 9.8929 18.8117C9.75958 18.8117 9.63178 18.7585 9.5379 18.6638L4.1479 13.2738C4.05324 13.18 4 13.0522 4 12.9188C4 12.7855 4.05324 12.6577 4.1479 12.5638L4.8479 11.8638C4.94178 11.7692 5.06958 11.7159 5.2029 11.7159C5.33622 11.7159 5.46402 11.7692 5.5579 11.8638L9.8879 16.1938L19.4379 6.64384C19.6357 6.45205 19.9501 6.45205 20.1479 6.64384L20.8479 7.35384C20.9426 7.44772 20.9958 7.57552 20.9958 7.70884C20.9958 7.84216 20.9426 7.96995 20.8479 8.06384Z" fill="black"/>
</svg>
