<svg width="25" height="25" viewBox="0 0 25 25" fill="none" xmlns="http://www.w3.org/2000/svg">
<path d="M20.8479 7.84167L10.2479 18.4416C10.154 18.5363 10.0262 18.5895 9.8929 18.5895C9.75958 18.5895 9.63178 18.5363 9.5379 18.4416L4.1479 13.0516C4.05324 12.9578 4 12.83 4 12.6966C4 12.5633 4.05324 12.4355 4.1479 12.3416L4.8479 11.6416C4.94178 11.547 5.06958 11.4937 5.2029 11.4937C5.33622 11.4937 5.46402 11.547 5.5579 11.6416L9.8879 15.9716L19.4379 6.42167C19.6357 6.22988 19.9501 6.22988 20.1479 6.42167L20.8479 7.13167C20.9426 7.22555 20.9958 7.35335 20.9958 7.48667C20.9958 7.61999 20.9426 7.74778 20.8479 7.84167Z" fill="black"/>
</svg>
