<svg width="25" height="25" viewBox="0 0 25 25" fill="none" xmlns="http://www.w3.org/2000/svg">
<path d="M20.8479 7.95276L10.2479 18.5527C10.154 18.6474 10.0262 18.7006 9.8929 18.7006C9.75958 18.7006 9.63178 18.6474 9.5379 18.5527L4.1479 13.1627C4.05324 13.0689 4 12.9411 4 12.8077C4 12.6744 4.05324 12.5466 4.1479 12.4527L4.8479 11.7527C4.94178 11.6581 5.06958 11.6048 5.2029 11.6048C5.33622 11.6048 5.46402 11.6581 5.5579 11.7527L9.8879 16.0827L19.4379 6.53276C19.6357 6.34097 19.9501 6.34097 20.1479 6.53276L20.8479 7.24276C20.9426 7.33664 20.9958 7.46444 20.9958 7.59776C20.9958 7.73108 20.9426 7.85887 20.8479 7.95276Z" fill="black"/>
</svg>
