<svg width="64" height="27" viewBox="0 0 64 27" fill="none" xmlns="http://www.w3.org/2000/svg">
<g clip-path="url(#clip0_2_136)">
<path d="M1.06445 21H13.7485V17.444H5.60045V0.980011H1.06445V21Z" fill="black"/>
<path d="M22.087 18.228C19.791 18.228 18.503 16.548 18.503 13.748V13.524C18.503 10.724 19.847 9.10002 22.087 9.10002C24.355 9.10002 25.671 10.78 25.671 13.58V13.776C25.671 16.548 24.355 18.228 22.087 18.228ZM22.059 21.308C26.455 21.308 29.787 18.368 29.787 13.748V13.524C29.787 8.96002 26.483 6.02002 22.087 6.02002C17.691 6.02002 14.359 9.01602 14.359 13.608V13.832C14.359 18.396 17.691 21.308 22.059 21.308Z" fill="black"/>
<path d="M38.1649 26.404C42.9809 26.404 45.8649 24.192 45.8929 19.852V6.35602H41.8609V8.54002C41.0209 7.05602 39.5929 6.02002 37.2129 6.02002C33.5729 6.02002 30.7729 8.96002 30.7729 13.16V13.356C30.7729 17.696 33.6009 20.356 37.1569 20.356C39.3129 20.356 41.0489 19.068 41.8609 17.64V19.852C41.8609 22.148 40.6289 23.436 38.1649 23.436C36.0929 23.436 35.1689 22.596 34.9169 21.308H30.8849C31.2769 24.332 33.4329 26.404 38.1649 26.404ZM38.3609 17.304C36.3449 17.304 34.9169 15.792 34.9169 13.356V13.132C34.9169 10.724 36.1769 9.10002 38.4449 9.10002C40.6569 9.10002 41.9729 10.612 41.9729 13.104V13.3C41.9729 15.792 40.4889 17.304 38.3609 17.304Z" fill="black"/>
<path d="M55.4617 18.228C53.1657 18.228 51.8777 16.548 51.8777 13.748V13.524C51.8777 10.724 53.2217 9.10002 55.4617 9.10002C57.7297 9.10002 59.0457 10.78 59.0457 13.58V13.776C59.0457 16.548 57.7297 18.228 55.4617 18.228ZM55.4337 21.308C59.8297 21.308 63.1617 18.368 63.1617 13.748V13.524C63.1617 8.96002 59.8577 6.02002 55.4617 6.02002C51.0657 6.02002 47.7337 9.01602 47.7337 13.608V13.832C47.7337 18.396 51.0657 21.308 55.4337 21.308Z" fill="black"/>
</g>
<defs>
<clipPath id="clip0_2_136">
<rect width="63" height="27" fill="white" transform="translate(0.5)"/>
</clipPath>
</defs>
</svg>
