<svg width="64" height="27" viewBox="0 0 64 27" fill="none" xmlns="http://www.w3.org/2000/svg">
<g clip-path="url(#clip0_2_3978)">
<path d="M1.06348 21H13.7475V17.444H5.59947V0.980011H1.06348V21Z" fill="black"/>
<path d="M22.0864 18.228C19.7904 18.228 18.5024 16.548 18.5024 13.748V13.524C18.5024 10.724 19.8464 9.10002 22.0864 9.10002C24.3544 9.10002 25.6704 10.78 25.6704 13.58V13.776C25.6704 16.548 24.3544 18.228 22.0864 18.228ZM22.0584 21.308C26.4544 21.308 29.7864 18.368 29.7864 13.748V13.524C29.7864 8.96002 26.4824 6.02002 22.0864 6.02002C17.6904 6.02002 14.3584 9.01602 14.3584 13.608V13.832C14.3584 18.396 17.6904 21.308 22.0584 21.308Z" fill="black"/>
<path d="M38.1635 26.404C42.9795 26.404 45.8635 24.192 45.8915 19.852V6.35602H41.8595V8.54002C41.0195 7.05602 39.5915 6.02002 37.2115 6.02002C33.5715 6.02002 30.7715 8.96002 30.7715 13.16V13.356C30.7715 17.696 33.5995 20.356 37.1555 20.356C39.3115 20.356 41.0475 19.068 41.8595 17.64V19.852C41.8595 22.148 40.6275 23.436 38.1635 23.436C36.0915 23.436 35.1675 22.596 34.9155 21.308H30.8835C31.2755 24.332 33.4315 26.404 38.1635 26.404ZM38.3595 17.304C36.3435 17.304 34.9155 15.792 34.9155 13.356V13.132C34.9155 10.724 36.1755 9.10002 38.4435 9.10002C40.6555 9.10002 41.9715 10.612 41.9715 13.104V13.3C41.9715 15.792 40.4875 17.304 38.3595 17.304Z" fill="black"/>
<path d="M55.4604 18.228C53.1644 18.228 51.8764 16.548 51.8764 13.748V13.524C51.8764 10.724 53.2204 9.10002 55.4604 9.10002C57.7284 9.10002 59.0444 10.78 59.0444 13.58V13.776C59.0444 16.548 57.7284 18.228 55.4604 18.228ZM55.4324 21.308C59.8284 21.308 63.1604 18.368 63.1604 13.748V13.524C63.1604 8.96002 59.8564 6.02002 55.4604 6.02002C51.0644 6.02002 47.7324 9.01602 47.7324 13.608V13.832C47.7324 18.396 51.0644 21.308 55.4324 21.308Z" fill="black"/>
</g>
<defs>
<clipPath id="clip0_2_3978">
<rect width="63" height="27" fill="white" transform="translate(0.499023)"/>
</clipPath>
</defs>
</svg>
