<svg width="25" height="25" viewBox="0 0 25 25" fill="none" xmlns="http://www.w3.org/2000/svg">
<path fill-rule="evenodd" clip-rule="evenodd" d="M16.499 3.74268H8.49902C5.7376 3.74268 3.49902 5.98126 3.49902 8.74268V16.7427C3.49902 19.5041 5.7376 21.7427 8.49902 21.7427H16.499C19.2604 21.7427 21.499 19.5041 21.499 16.7427V8.74268C21.499 5.98126 19.2604 3.74268 16.499 3.74268ZM19.749 16.7427C19.7435 18.5353 18.2916 19.9872 16.499 19.9927H8.49902C6.70637 19.9872 5.25451 18.5353 5.24902 16.7427V8.74268C5.25451 6.95003 6.70637 5.49817 8.49902 5.49268H16.499C18.2916 5.49817 19.7435 6.95003 19.749 8.74268V16.7427ZM17.249 8.99268C17.8013 8.99268 18.249 8.54496 18.249 7.99268C18.249 7.4404 17.8013 6.99268 17.249 6.99268C16.6967 6.99268 16.249 7.4404 16.249 7.99268C16.249 8.54496 16.6967 8.99268 17.249 8.99268ZM12.499 8.24268C10.0137 8.24268 7.99902 10.2574 7.99902 12.7427C7.99902 15.228 10.0137 17.2427 12.499 17.2427C14.9843 17.2427 16.999 15.228 16.999 12.7427C17.0017 11.5484 16.5284 10.4022 15.6839 9.55776C14.8394 8.71327 13.6933 8.24002 12.499 8.24268ZM9.74902 12.7427C9.74902 14.2615 10.9802 15.4927 12.499 15.4927C14.0178 15.4927 15.249 14.2615 15.249 12.7427C15.249 11.2239 14.0178 9.99268 12.499 9.99268C10.9802 9.99268 9.74902 11.2239 9.74902 12.7427Z" fill="black"/>
</svg>
