<svg width="25" height="25" viewBox="0 0 25 25" fill="none" xmlns="http://www.w3.org/2000/svg">
<path fill-rule="evenodd" clip-rule="evenodd" d="M16.5 3.52051H8.5C5.73858 3.52051 3.5 5.75909 3.5 8.52051V16.5205C3.5 19.2819 5.73858 21.5205 8.5 21.5205H16.5C19.2614 21.5205 21.5 19.2819 21.5 16.5205V8.52051C21.5 5.75909 19.2614 3.52051 16.5 3.52051ZM19.75 16.5205C19.7445 18.3131 18.2926 19.765 16.5 19.7705H8.5C6.70735 19.765 5.25549 18.3131 5.25 16.5205V8.52051C5.25549 6.72786 6.70735 5.276 8.5 5.27051H16.5C18.2926 5.276 19.7445 6.72786 19.75 8.52051V16.5205ZM17.25 8.77051C17.8023 8.77051 18.25 8.32279 18.25 7.77051C18.25 7.21823 17.8023 6.77051 17.25 6.77051C16.6977 6.77051 16.25 7.21823 16.25 7.77051C16.25 8.32279 16.6977 8.77051 17.25 8.77051ZM12.5 8.02051C10.0147 8.02051 8 10.0352 8 12.5205C8 15.0058 10.0147 17.0205 12.5 17.0205C14.9853 17.0205 17 15.0058 17 12.5205C17.0027 11.3262 16.5294 10.1801 15.6849 9.33559C14.8404 8.4911 13.6943 8.01785 12.5 8.02051ZM9.75 12.5205C9.75 14.0393 10.9812 15.2705 12.5 15.2705C14.0188 15.2705 15.25 14.0393 15.25 12.5205C15.25 11.0017 14.0188 9.77051 12.5 9.77051C10.9812 9.77051 9.75 11.0017 9.75 12.5205Z" fill="black"/>
</svg>
