<svg width="25" height="25" viewBox="0 0 25 25" fill="none" xmlns="http://www.w3.org/2000/svg">
<path d="M4.72074 20.278C5.18461 20.7425 5.73571 21.1108 6.34236 21.3617C6.94901 21.6126 7.59926 21.7411 8.25574 21.74C8.91237 21.7411 9.56276 21.6125 10.1696 21.3617C10.7764 21.1108 11.3277 20.7425 11.7917 20.278L14.6197 17.449L13.2057 16.035L10.3777 18.864C9.81421 19.425 9.05141 19.7399 8.25624 19.7399C7.46107 19.7399 6.69827 19.425 6.13474 18.864C5.57324 18.3007 5.25795 17.5378 5.25795 16.7425C5.25795 15.9471 5.57324 15.1842 6.13474 14.621L8.96374 11.793L7.54974 10.379L4.72074 13.207C3.78455 14.1454 3.25879 15.4169 3.25879 16.7425C3.25879 18.068 3.78455 19.3395 4.72074 20.278ZM20.2767 11.793C21.2124 10.8542 21.7379 9.58288 21.7379 8.25746C21.7379 6.93204 21.2124 5.66068 20.2767 4.72196C19.3383 3.78577 18.0668 3.26001 16.7412 3.26001C15.4157 3.26001 14.1442 3.78577 13.2057 4.72196L10.3777 7.55096L11.7917 8.96496L14.6197 6.13596C15.1833 5.57495 15.9461 5.25999 16.7412 5.25999C17.5364 5.25999 18.2992 5.57495 18.8627 6.13596C19.4242 6.69923 19.7395 7.46213 19.7395 8.25746C19.7395 9.05279 19.4242 9.81569 18.8627 10.379L16.0337 13.207L17.4477 14.621L20.2767 11.793ZM8.96273 17.45L7.54773 16.036L16.0347 7.55005L17.4487 8.96505L8.96273 17.45Z" fill="black"/>
<path d="M4.72074 20.278C5.18461 20.7425 5.73571 21.1108 6.34236 21.3617C6.94901 21.6126 7.59926 21.7411 8.25574 21.74C8.91237 21.7411 9.56276 21.6125 10.1696 21.3617C10.7764 21.1108 11.3277 20.7425 11.7917 20.278L14.6197 17.449L13.2057 16.035L10.3777 18.864C9.81421 19.425 9.05141 19.7399 8.25624 19.7399C7.46107 19.7399 6.69827 19.425 6.13474 18.864C5.57324 18.3007 5.25795 17.5378 5.25795 16.7425C5.25795 15.9471 5.57324 15.1842 6.13474 14.621L8.96374 11.793L7.54974 10.379L4.72074 13.207C3.78455 14.1454 3.25879 15.4169 3.25879 16.7425C3.25879 18.068 3.78455 19.3395 4.72074 20.278ZM20.2767 11.793C21.2124 10.8542 21.7379 9.58288 21.7379 8.25746C21.7379 6.93204 21.2124 5.66068 20.2767 4.72196C19.3383 3.78577 18.0668 3.26001 16.7412 3.26001C15.4157 3.26001 14.1442 3.78577 13.2057 4.72196L10.3777 7.55096L11.7917 8.96496L14.6197 6.13596C15.1833 5.57495 15.9461 5.25999 16.7412 5.25999C17.5364 5.25999 18.2992 5.57495 18.8627 6.13596C19.4242 6.69923 19.7395 7.46213 19.7395 8.25746C19.7395 9.05279 19.4242 9.81569 18.8627 10.379L16.0337 13.207L17.4477 14.621L20.2767 11.793ZM8.96273 17.45L7.54773 16.036L16.0347 7.55005L17.4487 8.96505L8.96273 17.45Z" fill="black"/>
</svg>
