<svg width="25" height="25" viewBox="0 0 25 25" fill="none" xmlns="http://www.w3.org/2000/svg">
<path fill-rule="evenodd" clip-rule="evenodd" d="M4.99902 3.74268C4.17059 3.74268 3.49902 4.41425 3.49902 5.24268V20.2427C3.49902 21.0711 4.17059 21.7427 4.99902 21.7427H19.999C20.8274 21.7427 21.499 21.0711 21.499 20.2427V5.24268C21.499 4.41425 20.8274 3.74268 19.999 3.74268H4.99902ZM9.01978 7.7454C9.02541 8.70165 8.30963 9.29087 7.46025 9.28665C6.66009 9.28243 5.96259 8.6454 5.96681 7.74681C5.97103 6.90165 6.639 6.22243 7.50666 6.24212C8.38697 6.26181 9.02541 6.90728 9.01978 7.7454ZM12.7787 10.5044H10.2587H10.2573V19.0643H12.9207V18.8646C12.9207 18.4847 12.9204 18.1047 12.9201 17.7246C12.9193 16.7108 12.9184 15.6959 12.9236 14.6824C12.925 14.4363 12.9362 14.1804 12.9995 13.9455C13.2371 13.068 14.0261 12.5013 14.9064 12.6406C15.4717 12.7291 15.8457 13.0568 16.0032 13.5898C16.1003 13.923 16.1439 14.2816 16.1481 14.629C16.1595 15.6766 16.1579 16.7242 16.1563 17.7719C16.1557 18.1417 16.1551 18.5117 16.1551 18.8815V19.0629H18.827V18.8576C18.827 18.4056 18.8268 17.9537 18.8265 17.5018C18.826 16.3723 18.8254 15.2428 18.8284 14.1129C18.8298 13.6024 18.775 13.099 18.6498 12.6054C18.4628 11.8713 18.0761 11.2638 17.4475 10.8251C17.0017 10.5129 16.5123 10.3118 15.9653 10.2893C15.903 10.2867 15.8402 10.2833 15.7771 10.2799C15.4974 10.2648 15.2131 10.2494 14.9457 10.3033C14.1807 10.4566 13.5086 10.8068 13.0009 11.4241C12.9419 11.4949 12.8842 11.5668 12.7981 11.6741L12.7787 11.6984V10.5044ZM6.18066 19.0671H8.83144V10.51H6.18066V19.0671Z" fill="black"/>
</svg>
