<svg width="17" height="16" viewBox="0 0 17 16" fill="none" xmlns="http://www.w3.org/2000/svg">
<path fill-rule="evenodd" clip-rule="evenodd" d="M14.32 4.74665L14.2267 4.57998C14.1063 4.37844 13.9365 4.21093 13.7333 4.09331L9.26 1.51331C9.05746 1.39581 8.82753 1.33373 8.59333 1.33331H8.4C8.1658 1.33373 7.93586 1.39581 7.73333 1.51331L3.26 4.09998C3.05798 4.21682 2.89017 4.38463 2.77333 4.58665L2.68 4.75331C2.5625 4.95587 2.50041 5.18581 2.5 5.41998V10.5866C2.50041 10.8208 2.5625 11.0508 2.68 11.2533L2.77333 11.42C2.89319 11.6196 3.06033 11.7868 3.26 11.9066L7.74 14.4866C7.94153 14.6066 8.17213 14.6688 8.40666 14.6666H8.59333C8.82753 14.6662 9.05746 14.6042 9.26 14.4866L13.7333 11.9C13.9373 11.7858 14.1058 11.6173 14.22 11.4133L14.32 11.2466C14.4361 11.0435 14.4981 10.814 14.5 10.58V5.41331C14.4996 5.17914 14.4375 4.94921 14.32 4.74665ZM8.4 2.66665H8.59333L12.5 4.91998L8.5 7.22665L4.5 4.91998L8.4 2.66665ZM9.16666 13L13.0667 10.7466L13.1667 10.58V6.07331L9.16666 8.38665V13Z" fill="black"/>
</svg>
