<svg width="25" height="25" viewBox="0 0 25 25" fill="none" xmlns="http://www.w3.org/2000/svg">
<path fill-rule="evenodd" clip-rule="evenodd" d="M16.5 3.74219H8.5C5.73858 3.74219 3.5 5.98077 3.5 8.74219V16.7422C3.5 19.5036 5.73858 21.7422 8.5 21.7422H16.5C19.2614 21.7422 21.5 19.5036 21.5 16.7422V8.74219C21.5 5.98077 19.2614 3.74219 16.5 3.74219ZM19.75 16.7422C19.7445 18.5348 18.2926 19.9867 16.5 19.9922H8.5C6.70735 19.9867 5.25549 18.5348 5.25 16.7422V8.74219C5.25549 6.94954 6.70735 5.49768 8.5 5.49219H16.5C18.2926 5.49768 19.7445 6.94954 19.75 8.74219V16.7422ZM17.25 8.99219C17.8023 8.99219 18.25 8.54447 18.25 7.99219C18.25 7.43991 17.8023 6.99219 17.25 6.99219C16.6977 6.99219 16.25 7.43991 16.25 7.99219C16.25 8.54447 16.6977 8.99219 17.25 8.99219ZM12.5 8.24219C10.0147 8.24219 8 10.2569 8 12.7422C8 15.2275 10.0147 17.2422 12.5 17.2422C14.9853 17.2422 17 15.2275 17 12.7422C17.0027 11.5479 16.5294 10.4018 15.6849 9.55727C14.8404 8.71278 13.6943 8.23953 12.5 8.24219ZM9.75 12.7422C9.75 14.261 10.9812 15.4922 12.5 15.4922C14.0188 15.4922 15.25 14.261 15.25 12.7422C15.25 11.2234 14.0188 9.99219 12.5 9.99219C10.9812 9.99219 9.75 11.2234 9.75 12.7422Z" fill="black"/>
</svg>
