<svg width="64" height="28" viewBox="0 0 64 28" fill="none" xmlns="http://www.w3.org/2000/svg">
<g clip-path="url(#clip0_2_1473)">
<path d="M1.06445 21.5005H13.7485V17.9445H5.60045V1.48047H1.06445V21.5005Z" fill="black"/>
<path d="M22.087 18.7275C19.791 18.7275 18.503 17.0475 18.503 14.2475V14.0235C18.503 11.2235 19.847 9.59953 22.087 9.59953C24.355 9.59953 25.671 11.2795 25.671 14.0795V14.2755C25.671 17.0475 24.355 18.7275 22.087 18.7275ZM22.059 21.8075C26.455 21.8075 29.787 18.8675 29.787 14.2475V14.0235C29.787 9.45953 26.483 6.51953 22.087 6.51953C17.691 6.51953 14.359 9.51553 14.359 14.1075V14.3315C14.359 18.8955 17.691 21.8075 22.059 21.8075Z" fill="black"/>
<path d="M38.1649 26.9035C42.9809 26.9035 45.8649 24.6915 45.8929 20.3515V6.85553H41.8609V9.03953C41.0209 7.55553 39.5929 6.51953 37.2129 6.51953C33.5729 6.51953 30.7729 9.45953 30.7729 13.6595V13.8555C30.7729 18.1955 33.6009 20.8555 37.1569 20.8555C39.3129 20.8555 41.0489 19.5675 41.8609 18.1395V20.3515C41.8609 22.6475 40.6289 23.9355 38.1649 23.9355C36.0929 23.9355 35.1689 23.0955 34.9169 21.8075H30.8849C31.2769 24.8315 33.4329 26.9035 38.1649 26.9035ZM38.3609 17.8035C36.3449 17.8035 34.9169 16.2915 34.9169 13.8555V13.6315C34.9169 11.2235 36.1769 9.59953 38.4449 9.59953C40.6569 9.59953 41.9729 11.1115 41.9729 13.6035V13.7995C41.9729 16.2915 40.4889 17.8035 38.3609 17.8035Z" fill="black"/>
<path d="M55.4617 18.7275C53.1657 18.7275 51.8777 17.0475 51.8777 14.2475V14.0235C51.8777 11.2235 53.2217 9.59953 55.4617 9.59953C57.7297 9.59953 59.0457 11.2795 59.0457 14.0795V14.2755C59.0457 17.0475 57.7297 18.7275 55.4617 18.7275ZM55.4337 21.8075C59.8297 21.8075 63.1617 18.8675 63.1617 14.2475V14.0235C63.1617 9.45953 59.8577 6.51953 55.4617 6.51953C51.0657 6.51953 47.7337 9.51553 47.7337 14.1075V14.3315C47.7337 18.8955 51.0657 21.8075 55.4337 21.8075Z" fill="black"/>
</g>
<defs>
<clipPath id="clip0_2_1473">
<rect width="63" height="27" fill="white" transform="translate(0.5 0.5)"/>
</clipPath>
</defs>
</svg>
