<svg width="64" height="28" viewBox="0 0 64 28" fill="none" xmlns="http://www.w3.org/2000/svg">
<g clip-path="url(#clip0_2_2399)">
<path d="M1.06445 21.5H13.7485V17.944H5.60045V1.47998H1.06445V21.5Z" fill="black"/>
<path d="M22.0869 18.728C19.7909 18.728 18.5029 17.048 18.5029 14.248V14.024C18.5029 11.224 19.8469 9.60002 22.0869 9.60002C24.3549 9.60002 25.6709 11.28 25.6709 14.08V14.276C25.6709 17.048 24.3549 18.728 22.0869 18.728ZM22.0589 21.808C26.4549 21.808 29.7869 18.868 29.7869 14.248V14.024C29.7869 9.46002 26.4829 6.52002 22.0869 6.52002C17.6909 6.52002 14.3589 9.51602 14.3589 14.108V14.332C14.3589 18.896 17.6909 21.808 22.0589 21.808Z" fill="black"/>
<path d="M38.165 26.904C42.981 26.904 45.8649 24.692 45.8929 20.352V6.85602H41.861V9.04002C41.021 7.55602 39.5929 6.52002 37.2129 6.52002C33.5729 6.52002 30.7729 9.46002 30.7729 13.66V13.856C30.7729 18.196 33.6009 20.856 37.1569 20.856C39.3129 20.856 41.049 19.568 41.861 18.14V20.352C41.861 22.648 40.629 23.936 38.165 23.936C36.093 23.936 35.169 23.096 34.917 21.808H30.8849C31.2769 24.832 33.433 26.904 38.165 26.904ZM38.361 17.804C36.345 17.804 34.917 16.292 34.917 13.856V13.632C34.917 11.224 36.177 9.60002 38.445 9.60002C40.6569 9.60002 41.9729 11.112 41.9729 13.604V13.8C41.9729 16.292 40.489 17.804 38.361 17.804Z" fill="black"/>
<path d="M55.4616 18.728C53.1656 18.728 51.8776 17.048 51.8776 14.248V14.024C51.8776 11.224 53.2216 9.60002 55.4616 9.60002C57.7296 9.60002 59.0456 11.28 59.0456 14.08V14.276C59.0456 17.048 57.7296 18.728 55.4616 18.728ZM55.4336 21.808C59.8296 21.808 63.1616 18.868 63.1616 14.248V14.024C63.1616 9.46002 59.8576 6.52002 55.4616 6.52002C51.0656 6.52002 47.7336 9.51602 47.7336 14.108V14.332C47.7336 18.896 51.0656 21.808 55.4336 21.808Z" fill="black"/>
</g>
<defs>
<clipPath id="clip0_2_2399">
<rect width="63" height="27" fill="white" transform="translate(0.5 0.5)"/>
</clipPath>
</defs>
</svg>
