<svg width="64" height="28" viewBox="0 0 64 28" fill="none" xmlns="http://www.w3.org/2000/svg">
<g clip-path="url(#clip0_2_1399)">
<path d="M1.06445 21.5H13.7485V17.944H5.60045V1.47998H1.06445V21.5Z" fill="black"/>
<path d="M22.087 18.728C19.791 18.728 18.503 17.048 18.503 14.248V14.024C18.503 11.224 19.847 9.60002 22.087 9.60002C24.355 9.60002 25.671 11.28 25.671 14.08V14.276C25.671 17.048 24.355 18.728 22.087 18.728ZM22.059 21.808C26.455 21.808 29.787 18.868 29.787 14.248V14.024C29.787 9.46002 26.483 6.52002 22.087 6.52002C17.691 6.52002 14.359 9.51602 14.359 14.108V14.332C14.359 18.896 17.691 21.808 22.059 21.808Z" fill="black"/>
<path d="M38.1649 26.904C42.9809 26.904 45.8649 24.692 45.8929 20.352V6.85602H41.8609V9.04002C41.0209 7.55602 39.5929 6.52002 37.2129 6.52002C33.5729 6.52002 30.7729 9.46002 30.7729 13.66V13.856C30.7729 18.196 33.6009 20.856 37.1569 20.856C39.3129 20.856 41.0489 19.568 41.8609 18.14V20.352C41.8609 22.648 40.6289 23.936 38.1649 23.936C36.0929 23.936 35.1689 23.096 34.9169 21.808H30.8849C31.2769 24.832 33.4329 26.904 38.1649 26.904ZM38.3609 17.804C36.3449 17.804 34.9169 16.292 34.9169 13.856V13.632C34.9169 11.224 36.1769 9.60002 38.4449 9.60002C40.6569 9.60002 41.9729 11.112 41.9729 13.604V13.8C41.9729 16.292 40.4889 17.804 38.3609 17.804Z" fill="black"/>
<path d="M55.4617 18.728C53.1657 18.728 51.8777 17.048 51.8777 14.248V14.024C51.8777 11.224 53.2217 9.60002 55.4617 9.60002C57.7297 9.60002 59.0457 11.28 59.0457 14.08V14.276C59.0457 17.048 57.7297 18.728 55.4617 18.728ZM55.4337 21.808C59.8297 21.808 63.1617 18.868 63.1617 14.248V14.024C63.1617 9.46002 59.8577 6.52002 55.4617 6.52002C51.0657 6.52002 47.7337 9.51602 47.7337 14.108V14.332C47.7337 18.896 51.0657 21.808 55.4337 21.808Z" fill="black"/>
</g>
<defs>
<clipPath id="clip0_2_1399">
<rect width="63" height="27" fill="white" transform="translate(0.5 0.5)"/>
</clipPath>
</defs>
</svg>
