<svg width="64" height="28" viewBox="0 0 64 28" fill="none" xmlns="http://www.w3.org/2000/svg">
<g clip-path="url(#clip0_2_3162)">
<path d="M1.06445 21.2778H13.7485V17.7218H5.60045V1.25781H1.06445V21.2778Z" fill="black"/>
<path d="M22.0869 18.5058C19.7909 18.5058 18.5029 16.8258 18.5029 14.0258V13.8018C18.5029 11.0018 19.8469 9.37785 22.0869 9.37785C24.3549 9.37785 25.6709 11.0578 25.6709 13.8578V14.0538C25.6709 16.8258 24.3549 18.5058 22.0869 18.5058ZM22.0589 21.5858C26.4549 21.5858 29.7869 18.6458 29.7869 14.0258V13.8018C29.7869 9.23785 26.4829 6.29785 22.0869 6.29785C17.6909 6.29785 14.3589 9.29385 14.3589 13.8858V14.1098C14.3589 18.6738 17.6909 21.5858 22.0589 21.5858Z" fill="black"/>
<path d="M38.165 26.6818C42.981 26.6818 45.8649 24.4698 45.8929 20.1298V6.63385H41.861V8.81785C41.021 7.33385 39.5929 6.29785 37.2129 6.29785C33.5729 6.29785 30.7729 9.23785 30.7729 13.4378V13.6338C30.7729 17.9738 33.6009 20.6338 37.1569 20.6338C39.3129 20.6338 41.049 19.3458 41.861 17.9178V20.1298C41.861 22.4258 40.629 23.7138 38.165 23.7138C36.093 23.7138 35.169 22.8738 34.917 21.5858H30.8849C31.2769 24.6098 33.433 26.6818 38.165 26.6818ZM38.361 17.5818C36.345 17.5818 34.917 16.0698 34.917 13.6338V13.4098C34.917 11.0018 36.177 9.37785 38.445 9.37785C40.6569 9.37785 41.9729 10.8898 41.9729 13.3818V13.5778C41.9729 16.0698 40.489 17.5818 38.361 17.5818Z" fill="black"/>
<path d="M55.4619 18.5058C53.1659 18.5058 51.8779 16.8258 51.8779 14.0258V13.8018C51.8779 11.0018 53.2219 9.37785 55.4619 9.37785C57.7299 9.37785 59.0459 11.0578 59.0459 13.8578V14.0538C59.0459 16.8258 57.7299 18.5058 55.4619 18.5058ZM55.4339 21.5858C59.8299 21.5858 63.1619 18.6458 63.1619 14.0258V13.8018C63.1619 9.23785 59.8579 6.29785 55.4619 6.29785C51.0659 6.29785 47.7339 9.29385 47.7339 13.8858V14.1098C47.7339 18.6738 51.0659 21.5858 55.4339 21.5858Z" fill="black"/>
</g>
<defs>
<clipPath id="clip0_2_3162">
<rect width="63" height="27" fill="white" transform="translate(0.5 0.277832)"/>
</clipPath>
</defs>
</svg>
