<svg width="64" height="28" viewBox="0 0 64 28" fill="none" xmlns="http://www.w3.org/2000/svg">
<g clip-path="url(#clip0_2_3883)">
<path d="M1.06348 21.5H13.7475V17.944H5.59947V1.47998H1.06348V21.5Z" fill="black"/>
<path d="M22.0864 18.728C19.7904 18.728 18.5024 17.048 18.5024 14.248V14.024C18.5024 11.224 19.8464 9.60002 22.0864 9.60002C24.3544 9.60002 25.6704 11.28 25.6704 14.08V14.276C25.6704 17.048 24.3544 18.728 22.0864 18.728ZM22.0584 21.808C26.4544 21.808 29.7864 18.868 29.7864 14.248V14.024C29.7864 9.46002 26.4824 6.52002 22.0864 6.52002C17.6904 6.52002 14.3584 9.51602 14.3584 14.108V14.332C14.3584 18.896 17.6904 21.808 22.0584 21.808Z" fill="black"/>
<path d="M38.1635 26.904C42.9795 26.904 45.8635 24.692 45.8915 20.352V6.85602H41.8595V9.04002C41.0195 7.55602 39.5915 6.52002 37.2115 6.52002C33.5715 6.52002 30.7715 9.46002 30.7715 13.66V13.856C30.7715 18.196 33.5995 20.856 37.1555 20.856C39.3115 20.856 41.0475 19.568 41.8595 18.14V20.352C41.8595 22.648 40.6275 23.936 38.1635 23.936C36.0915 23.936 35.1675 23.096 34.9155 21.808H30.8835C31.2755 24.832 33.4315 26.904 38.1635 26.904ZM38.3595 17.804C36.3435 17.804 34.9155 16.292 34.9155 13.856V13.632C34.9155 11.224 36.1755 9.60002 38.4435 9.60002C40.6555 9.60002 41.9715 11.112 41.9715 13.604V13.8C41.9715 16.292 40.4875 17.804 38.3595 17.804Z" fill="black"/>
<path d="M55.4604 18.728C53.1644 18.728 51.8764 17.048 51.8764 14.248V14.024C51.8764 11.224 53.2204 9.60002 55.4604 9.60002C57.7284 9.60002 59.0444 11.28 59.0444 14.08V14.276C59.0444 17.048 57.7284 18.728 55.4604 18.728ZM55.4324 21.808C59.8284 21.808 63.1604 18.868 63.1604 14.248V14.024C63.1604 9.46002 59.8564 6.52002 55.4604 6.52002C51.0644 6.52002 47.7324 9.51602 47.7324 14.108V14.332C47.7324 18.896 51.0644 21.808 55.4324 21.808Z" fill="black"/>
</g>
<defs>
<clipPath id="clip0_2_3883">
<rect width="63" height="27" fill="white" transform="translate(0.499023 0.5)"/>
</clipPath>
</defs>
</svg>
