<svg width="64" height="28" viewBox="0 0 64 28" fill="none" xmlns="http://www.w3.org/2000/svg">
<g clip-path="url(#clip0_2_2473)">
<path d="M1.06445 21.5H13.7485V17.944H5.60045V1.47998H1.06445V21.5Z" fill="black"/>
<path d="M22.0869 18.728C19.7909 18.728 18.5029 17.048 18.5029 14.248V14.024C18.5029 11.224 19.8469 9.60002 22.0869 9.60002C24.3549 9.60002 25.6709 11.28 25.6709 14.08V14.276C25.6709 17.048 24.3549 18.728 22.0869 18.728ZM22.0589 21.808C26.4549 21.808 29.7869 18.868 29.7869 14.248V14.024C29.7869 9.46002 26.4829 6.52002 22.0869 6.52002C17.6909 6.52002 14.3589 9.51602 14.3589 14.108V14.332C14.3589 18.896 17.6909 21.808 22.0589 21.808Z" fill="black"/>
<path d="M38.165 26.904C42.981 26.904 45.8649 24.692 45.8929 20.352V6.85602H41.861V9.04002C41.021 7.55602 39.5929 6.52002 37.2129 6.52002C33.5729 6.52002 30.7729 9.46002 30.7729 13.66V13.856C30.7729 18.196 33.6009 20.856 37.1569 20.856C39.3129 20.856 41.049 19.568 41.861 18.14V20.352C41.861 22.648 40.629 23.936 38.165 23.936C36.093 23.936 35.169 23.096 34.917 21.808H30.8849C31.2769 24.832 33.433 26.904 38.165 26.904ZM38.361 17.804C36.345 17.804 34.917 16.292 34.917 13.856V13.632C34.917 11.224 36.177 9.60002 38.445 9.60002C40.6569 9.60002 41.9729 11.112 41.9729 13.604V13.8C41.9729 16.292 40.489 17.804 38.361 17.804Z" fill="black"/>
<path d="M55.4619 18.728C53.1659 18.728 51.8779 17.048 51.8779 14.248V14.024C51.8779 11.224 53.2219 9.60002 55.4619 9.60002C57.7299 9.60002 59.0459 11.28 59.0459 14.08V14.276C59.0459 17.048 57.7299 18.728 55.4619 18.728ZM55.4339 21.808C59.8299 21.808 63.1619 18.868 63.1619 14.248V14.024C63.1619 9.46002 59.8579 6.52002 55.4619 6.52002C51.0659 6.52002 47.7339 9.51602 47.7339 14.108V14.332C47.7339 18.896 51.0659 21.808 55.4339 21.808Z" fill="black"/>
</g>
<defs>
<clipPath id="clip0_2_2473">
<rect width="63" height="27" fill="white" transform="translate(0.5 0.5)"/>
</clipPath>
</defs>
</svg>
