<svg width="117" height="20" viewBox="0 0 117 20" fill="none" xmlns="http://www.w3.org/2000/svg">
<g clip-path="url(#clip0_2_2836)">
<path d="M9.57088 1.00126C9.91462 0.184801 11.0854 0.184802 11.4291 1.00126L13.4579 5.82015C13.6029 6.16435 13.9306 6.39953 14.3067 6.42932L19.5727 6.84639C20.4649 6.91706 20.8267 8.01705 20.1469 8.59232L16.1348 11.9876C15.8482 12.2301 15.723 12.6107 15.8106 12.9732L17.0363 18.0499C17.244 18.91 16.2969 19.5899 15.533 19.129L11.0245 16.4085C10.7025 16.2141 10.2975 16.2141 9.97548 16.4085L5.46699 19.129C4.70311 19.5899 3.75596 18.91 3.96363 18.0499L5.18942 12.9732C5.27698 12.6107 5.15182 12.2301 4.86526 11.9876L0.853062 8.59232C0.173282 8.01705 0.535068 6.91706 1.42729 6.84639L6.69336 6.42932C7.0695 6.39953 7.39716 6.16435 7.54207 5.82015L9.57088 1.00126Z" fill="black"/>
<path d="M33.5709 1.00126C33.9146 0.184801 35.0854 0.184802 35.4291 1.00126L37.4579 5.82015C37.6029 6.16435 37.9306 6.39953 38.3067 6.42932L43.5727 6.84639C44.4649 6.91706 44.8267 8.01705 44.1469 8.59232L40.1348 11.9876C39.8482 12.2301 39.723 12.6107 39.8106 12.9732L41.0363 18.0499C41.244 18.91 40.2969 19.5899 39.533 19.129L35.0245 16.4085C34.7025 16.2141 34.2975 16.2141 33.9755 16.4085L29.467 19.129C28.7031 19.5899 27.756 18.91 27.9636 18.0499L29.1894 12.9732C29.277 12.6107 29.1518 12.2301 28.8653 11.9876L24.8531 8.59232C24.1733 8.01705 24.5351 6.91706 25.4273 6.84639L30.6934 6.42932C31.0695 6.39953 31.3972 6.16435 31.5421 5.82015L33.5709 1.00126Z" fill="black"/>
<path d="M57.5709 1.00126C57.9146 0.184801 59.0854 0.184802 59.4291 1.00126L61.4579 5.82015C61.6029 6.16435 61.9306 6.39953 62.3067 6.42932L67.5727 6.84639C68.4649 6.91706 68.8267 8.01705 68.1469 8.59232L64.1348 11.9876C63.8482 12.2301 63.723 12.6107 63.8106 12.9732L65.0363 18.0499C65.244 18.91 64.2969 19.5899 63.533 19.129L59.0245 16.4085C58.7025 16.2141 58.2975 16.2141 57.9755 16.4085L53.467 19.129C52.7031 19.5899 51.756 18.91 51.9636 18.0499L53.1894 12.9732C53.277 12.6107 53.1518 12.2301 52.8653 11.9876L48.8531 8.59232C48.1733 8.01705 48.5351 6.91706 49.4273 6.84639L54.6934 6.42932C55.0695 6.39953 55.3972 6.16435 55.5421 5.82015L57.5709 1.00126Z" fill="black"/>
<path d="M81.5709 1.00126C81.9146 0.184801 83.0854 0.184802 83.4291 1.00126L85.4579 5.82015C85.6029 6.16435 85.9306 6.39953 86.3067 6.42932L91.5727 6.84639C92.4649 6.91706 92.8267 8.01705 92.1469 8.59232L88.1348 11.9876C87.8482 12.2301 87.723 12.6107 87.8106 12.9732L89.0363 18.0499C89.244 18.91 88.2969 19.5899 87.533 19.129L83.0245 16.4085C82.7025 16.2141 82.2975 16.2141 81.9755 16.4085L77.467 19.129C76.7031 19.5899 75.756 18.91 75.9636 18.0499L77.1894 12.9732C77.277 12.6107 77.1518 12.2301 76.8653 11.9876L72.8531 8.59232C72.1733 8.01705 72.5351 6.91706 73.4273 6.84639L78.6934 6.42932C79.0695 6.39953 79.3972 6.16435 79.5421 5.82015L81.5709 1.00126Z" fill="black"/>
<path d="M105.571 1.00126C105.915 0.184801 107.085 0.184802 107.429 1.00126L109.458 5.82015C109.603 6.16435 109.931 6.39953 110.307 6.42932L115.573 6.84639C116.465 6.91706 116.827 8.01705 116.147 8.59232L112.135 11.9876C111.848 12.2301 111.723 12.6107 111.811 12.9732L113.036 18.0499C113.244 18.91 112.297 19.5899 111.533 19.129L107.025 16.4085C106.702 16.2141 106.297 16.2141 105.975 16.4085L101.467 19.129C100.703 19.5899 99.756 18.91 99.9636 18.0499L101.189 12.9732C101.277 12.6107 101.152 12.2301 100.865 11.9876L96.8531 8.59232C96.1733 8.01705 96.5351 6.91706 97.4273 6.84639L102.693 6.42932C103.069 6.39953 103.397 6.16435 103.542 5.82015L105.571 1.00126Z" fill="black"/>
</g>
<defs>
<clipPath id="clip0_2_2836">
<rect width="116" height="18.8889" fill="white" transform="translate(0.5 0.388916)"/>
</clipPath>
</defs>
</svg>
