<svg width="25" height="25" viewBox="0 0 25 25" fill="none" xmlns="http://www.w3.org/2000/svg">
<path fill-rule="evenodd" clip-rule="evenodd" d="M16.5 3.63159H8.5C5.73858 3.63159 3.5 5.87017 3.5 8.63159V16.6316C3.5 19.393 5.73858 21.6316 8.5 21.6316H16.5C19.2614 21.6316 21.5 19.393 21.5 16.6316V8.63159C21.5 5.87017 19.2614 3.63159 16.5 3.63159ZM19.75 16.6316C19.7445 18.4242 18.2926 19.8761 16.5 19.8816H8.5C6.70735 19.8761 5.25549 18.4242 5.25 16.6316V8.63159C5.25549 6.83894 6.70735 5.38708 8.5 5.38159H16.5C18.2926 5.38708 19.7445 6.83894 19.75 8.63159V16.6316ZM17.25 8.88159C17.8023 8.88159 18.25 8.43387 18.25 7.88159C18.25 7.32931 17.8023 6.88159 17.25 6.88159C16.6977 6.88159 16.25 7.32931 16.25 7.88159C16.25 8.43387 16.6977 8.88159 17.25 8.88159ZM12.5 8.13159C10.0147 8.13159 8 10.1463 8 12.6316C8 15.1169 10.0147 17.1316 12.5 17.1316C14.9853 17.1316 17 15.1169 17 12.6316C17.0027 11.4373 16.5294 10.2912 15.6849 9.44667C14.8404 8.60218 13.6943 8.12893 12.5 8.13159ZM9.75 12.6316C9.75 14.1504 10.9812 15.3816 12.5 15.3816C14.0188 15.3816 15.25 14.1504 15.25 12.6316C15.25 11.1128 14.0188 9.88159 12.5 9.88159C10.9812 9.88159 9.75 11.1128 9.75 12.6316Z" fill="black"/>
</svg>
